<svg xmlns="http://www.w3.org/2000/svg" width="392.695" height="358.741" viewBox="0 0 392.695 358.741"><defs><style>.a{fill:#16110d;}.b{fill:#48b971;}.c{fill:#edf4ed;}.d{fill:#dbfccc;}.e{fill:#35f58e;}.f{fill:#feedcc;}.g{fill:#15100c;}.h{fill:#140f0c;}.i{fill:#130e0c;}.j{fill:#fae9cc;}.k{fill:#fbeacc;}</style></defs><g transform="translate(-254.268 -47.517)"><g transform="translate(254.268 316.325)"><g transform="translate(0 0.718)"><ellipse class="a" cx="1.289" cy="0.744" rx="1.289" ry="0.744" transform="translate(71.572 46.836)"/><ellipse class="a" cx="1.289" cy="0.744" rx="1.289" ry="0.744" transform="translate(76.338 44.084)"/><path class="a" d="M306.273,281.535a.555.555,0,0,1,0,1.052,2.012,2.012,0,0,1-1.823,0,.555.555,0,0,1,0-1.052A2.012,2.012,0,0,1,306.273,281.535Z" transform="translate(-237.267 -237.232)"/><path class="a" d="M309.826,279.482a.556.556,0,0,1,0,1.053,2.012,2.012,0,0,1-1.823,0,.556.556,0,0,1,0-1.053A2.02,2.02,0,0,1,309.826,279.482Z" transform="translate(-236.054 -237.933)"/><path class="a" d="M302.72,279.482a.556.556,0,0,1,0,1.053,2.012,2.012,0,0,1-1.823,0,.556.556,0,0,1,0-1.053A2.02,2.02,0,0,1,302.72,279.482Z" transform="translate(-238.48 -237.933)"/><path class="a" d="M306.273,277.432a.556.556,0,0,1,0,1.053,2.02,2.02,0,0,1-1.823,0,.556.556,0,0,1,0-1.053A2.012,2.012,0,0,1,306.273,277.432Z" transform="translate(-237.267 -238.633)"/><path class="a" d="M299.167,277.432a.556.556,0,0,1,0,1.053,2.02,2.02,0,0,1-1.823,0,.556.556,0,0,1,0-1.053A2.012,2.012,0,0,1,299.167,277.432Z" transform="translate(-239.692 -238.633)"/><path class="a" d="M302.72,275.381a.555.555,0,0,1,0,1.052,2.012,2.012,0,0,1-1.823,0,.555.555,0,0,1,0-1.052A2.012,2.012,0,0,1,302.72,275.381Z" transform="translate(-238.48 -239.333)"/><ellipse class="a" cx="1.289" cy="0.744" rx="1.289" ry="0.744" transform="translate(52.508 35.829)"/><path class="a" d="M299.167,273.328a.556.556,0,0,1,0,1.053,2.012,2.012,0,0,1-1.823,0,.556.556,0,0,1,0-1.053A2.02,2.02,0,0,1,299.167,273.328Z" transform="translate(-239.692 -240.033)"/><path class="a" d="M292.03,273.308a.555.555,0,0,1,0,1.052,2.012,2.012,0,0,1-1.823,0,.555.555,0,0,1,0-1.052A2.012,2.012,0,0,1,292.03,273.308Z" transform="translate(-242.129 -240.041)"/><ellipse class="a" cx="1.289" cy="0.744" rx="1.289" ry="0.744" transform="translate(52.467 30.297)"/><path class="a" d="M288.477,271.257a.555.555,0,0,1,0,1.052,2.012,2.012,0,0,1-1.823,0,.555.555,0,0,1,0-1.052A2.012,2.012,0,0,1,288.477,271.257Z" transform="translate(-243.341 -240.741)"/><path class="a" d="M292.03,269.2a.556.556,0,0,1,0,1.053,2.02,2.02,0,0,1-1.823,0,.556.556,0,0,1,0-1.053A2.021,2.021,0,0,1,292.03,269.2Z" transform="translate(-242.129 -241.441)"/><ellipse class="a" cx="1.289" cy="0.744" rx="1.289" ry="0.744" transform="translate(38.169 27.546)"/><ellipse class="a" cx="1.289" cy="0.744" rx="1.289" ry="0.744" transform="translate(42.935 24.794)"/><path class="a" d="M281.371,267.154a.555.555,0,0,1,0,1.052,2.012,2.012,0,0,1-1.823,0,.555.555,0,0,1,0-1.052A2.012,2.012,0,0,1,281.371,267.154Z" transform="translate(-245.767 -242.142)"/><ellipse class="a" cx="1.289" cy="0.744" rx="1.289" ry="0.744" transform="translate(38.169 22.042)"/><ellipse class="a" cx="1.289" cy="0.744" rx="1.289" ry="0.744" transform="translate(28.637 22.042)"/><path class="a" d="M281.371,263.051a.556.556,0,0,1,0,1.053,2.02,2.02,0,0,1-1.823,0,.556.556,0,0,1,0-1.053A2.012,2.012,0,0,1,281.371,263.051Z" transform="translate(-245.767 -243.542)"/><path class="a" d="M274.265,263.051a.556.556,0,0,1,0,1.053,2.02,2.02,0,0,1-1.823,0,.556.556,0,0,1,0-1.053A2.012,2.012,0,0,1,274.265,263.051Z" transform="translate(-248.193 -243.542)"/><path class="a" d="M277.818,261a.555.555,0,0,1,0,1.052,2.012,2.012,0,0,1-1.823,0A.555.555,0,0,1,276,261,2.012,2.012,0,0,1,277.818,261Z" transform="translate(-246.98 -244.242)"/><path class="a" d="M270.711,261a.555.555,0,0,1,0,1.052,2.012,2.012,0,0,1-1.823,0,.555.555,0,0,1,0-1.052A2.012,2.012,0,0,1,270.711,261Z" transform="translate(-249.406 -244.242)"/><path class="a" d="M274.265,258.947a.556.556,0,0,1,0,1.053,2.012,2.012,0,0,1-1.823,0,.556.556,0,0,1,0-1.053A2.02,2.02,0,0,1,274.265,258.947Z" transform="translate(-248.193 -244.942)"/><path class="a" d="M267.158,258.947a.556.556,0,0,1,0,1.053,2.012,2.012,0,0,1-1.823,0,.556.556,0,0,1,0-1.053A2.02,2.02,0,0,1,267.158,258.947Z" transform="translate(-250.619 -244.942)"/><path class="a" d="M270.712,256.9a.556.556,0,0,1,0,1.053,2.02,2.02,0,0,1-1.823,0,.556.556,0,0,1,0-1.053A2.012,2.012,0,0,1,270.712,256.9Z" transform="translate(-249.406 -245.643)"/><path class="a" d="M263.575,256.874a.556.556,0,0,1,0,1.053,2.012,2.012,0,0,1-1.823,0,.556.556,0,0,1,0-1.053A2.02,2.02,0,0,1,263.575,256.874Z" transform="translate(-251.842 -245.65)"/><path class="a" d="M267.128,254.824a.556.556,0,0,1,0,1.053,2.02,2.02,0,0,1-1.823,0,.555.555,0,0,1,0-1.053A2.012,2.012,0,0,1,267.128,254.824Z" transform="translate(-250.629 -246.35)"/><path class="a" d="M260.021,254.824a.556.556,0,0,1,0,1.053,2.017,2.017,0,0,1-1.822,0,.556.556,0,0,1,0-1.053A2.009,2.009,0,0,1,260.021,254.824Z" transform="translate(-253.055 -246.35)"/><ellipse class="a" cx="1.289" cy="0.744" rx="1.289" ry="0.744" transform="translate(9.532 5.504)"/><path class="a" d="M256.468,252.773a.555.555,0,0,1,0,1.052,2.009,2.009,0,0,1-1.822,0,.555.555,0,0,1,0-1.052A2.009,2.009,0,0,1,256.468,252.773Z" transform="translate(-254.268 -247.051)"/><ellipse class="a" cx="1.289" cy="0.744" rx="1.289" ry="0.744" transform="translate(4.766 2.752)"/><path class="a" d="M256.468,248.67a.556.556,0,0,1,0,1.053,2.017,2.017,0,0,1-1.822,0,.556.556,0,0,1,0-1.053A2.009,2.009,0,0,1,256.468,248.67Z" transform="translate(-254.268 -248.451)"/><path class="a" d="M370.428,314.07a.556.556,0,0,1,0,1.053,2.012,2.012,0,0,1-1.823,0,.556.556,0,0,1,0-1.053A2.02,2.02,0,0,1,370.428,314.07Z" transform="translate(-215.366 -226.126)"/><path class="a" d="M373.981,312.02a.556.556,0,0,1,0,1.053,2.017,2.017,0,0,1-1.822,0,.556.556,0,0,1,0-1.053A2.009,2.009,0,0,1,373.981,312.02Z" transform="translate(-214.153 -226.826)"/><path class="a" d="M377.535,309.969a.555.555,0,0,1,0,1.052,2.012,2.012,0,0,1-1.823,0,.555.555,0,0,1,0-1.052A2.012,2.012,0,0,1,377.535,309.969Z" transform="translate(-212.941 -227.526)"/><path class="a" d="M381.088,307.916a.556.556,0,0,1,0,1.053,2.012,2.012,0,0,1-1.823,0,.556.556,0,0,1,0-1.053A2.02,2.02,0,0,1,381.088,307.916Z" transform="translate(-211.728 -228.226)"/><path class="a" d="M384.641,305.866a.556.556,0,0,1,0,1.053,2.02,2.02,0,0,1-1.823,0,.556.556,0,0,1,0-1.053A2.012,2.012,0,0,1,384.641,305.866Z" transform="translate(-210.515 -228.927)"/><path class="a" d="M388.194,303.813a.556.556,0,0,1,0,1.053,2.012,2.012,0,0,1-1.823,0,.556.556,0,0,1,0-1.053A2.02,2.02,0,0,1,388.194,303.813Z" transform="translate(-209.302 -229.627)"/><path class="a" d="M391.747,301.763a.556.556,0,0,1,0,1.053,2.02,2.02,0,0,1-1.823,0,.556.556,0,0,1,0-1.053A2.012,2.012,0,0,1,391.747,301.763Z" transform="translate(-208.089 -230.327)"/><path class="a" d="M395.3,299.712a.555.555,0,0,1,0,1.052,2.012,2.012,0,0,1-1.823,0,.555.555,0,0,1,0-1.052A2.012,2.012,0,0,1,395.3,299.712Z" transform="translate(-206.876 -231.027)"/><path class="a" d="M398.853,297.659a.556.556,0,0,1,0,1.053,2.012,2.012,0,0,1-1.823,0,.556.556,0,0,1,0-1.053A2.02,2.02,0,0,1,398.853,297.659Z" transform="translate(-205.663 -231.728)"/><path class="a" d="M402.406,295.609a.556.556,0,0,1,0,1.053,2.02,2.02,0,0,1-1.823,0,.556.556,0,0,1,0-1.053A2.012,2.012,0,0,1,402.406,295.609Z" transform="translate(-204.45 -232.428)"/><path class="a" d="M405.959,293.558a.555.555,0,0,1,0,1.052,2.012,2.012,0,0,1-1.823,0,.555.555,0,0,1,0-1.052A2.012,2.012,0,0,1,405.959,293.558Z" transform="translate(-203.237 -233.128)"/><path class="a" d="M409.512,291.505a.556.556,0,0,1,0,1.053,2.012,2.012,0,0,1-1.823,0,.556.556,0,0,1,0-1.053A2.02,2.02,0,0,1,409.512,291.505Z" transform="translate(-202.025 -233.828)"/><path class="a" d="M363.322,314.07a.556.556,0,0,1,0,1.053,2.012,2.012,0,0,1-1.823,0,.556.556,0,0,1,0-1.053A2.02,2.02,0,0,1,363.322,314.07Z" transform="translate(-217.792 -226.126)"/><ellipse class="a" cx="1.289" cy="0.744" rx="1.289" ry="0.744" transform="translate(148.096 84.976)"/><path class="a" d="M370.428,309.969a.555.555,0,0,1,0,1.052,2.012,2.012,0,0,1-1.823,0,.555.555,0,0,1,0-1.052A2.009,2.009,0,0,1,370.428,309.969Z" transform="translate(-215.366 -227.526)"/><path class="a" d="M373.981,307.916a.556.556,0,0,1,0,1.053,2.009,2.009,0,0,1-1.822,0,.556.556,0,0,1,0-1.053A2.017,2.017,0,0,1,373.981,307.916Z" transform="translate(-214.153 -228.226)"/><path class="a" d="M377.535,305.866a.556.556,0,0,1,0,1.053,2.02,2.02,0,0,1-1.823,0,.556.556,0,0,1,0-1.053A2.012,2.012,0,0,1,377.535,305.866Z" transform="translate(-212.941 -228.927)"/><path class="a" d="M381.088,303.813a.556.556,0,0,1,0,1.053,2.012,2.012,0,0,1-1.823,0,.556.556,0,0,1,0-1.053A2.02,2.02,0,0,1,381.088,303.813Z" transform="translate(-211.728 -229.627)"/><path class="a" d="M384.641,301.763a.556.556,0,0,1,0,1.053,2.02,2.02,0,0,1-1.823,0,.556.556,0,0,1,0-1.053A2.012,2.012,0,0,1,384.641,301.763Z" transform="translate(-210.515 -230.327)"/><path class="a" d="M388.194,299.712a.555.555,0,0,1,0,1.052,2.012,2.012,0,0,1-1.823,0,.555.555,0,0,1,0-1.052A2.012,2.012,0,0,1,388.194,299.712Z" transform="translate(-209.302 -231.027)"/><path class="a" d="M391.747,297.659a.556.556,0,0,1,0,1.053,2.012,2.012,0,0,1-1.823,0,.556.556,0,0,1,0-1.053A2.02,2.02,0,0,1,391.747,297.659Z" transform="translate(-208.089 -231.728)"/><path class="a" d="M395.3,295.609a.556.556,0,0,1,0,1.053,2.02,2.02,0,0,1-1.823,0,.556.556,0,0,1,0-1.053A2.012,2.012,0,0,1,395.3,295.609Z" transform="translate(-206.876 -232.428)"/><path class="a" d="M398.853,293.558a.555.555,0,0,1,0,1.052,2.012,2.012,0,0,1-1.823,0,.555.555,0,0,1,0-1.052A2.012,2.012,0,0,1,398.853,293.558Z" transform="translate(-205.663 -233.128)"/><path class="a" d="M402.406,291.505a.556.556,0,0,1,0,1.053,2.012,2.012,0,0,1-1.823,0,.556.556,0,0,1,0-1.053A2.02,2.02,0,0,1,402.406,291.505Z" transform="translate(-204.45 -233.828)"/><path class="a" d="M405.959,289.455a.556.556,0,0,1,0,1.053,2.02,2.02,0,0,1-1.823,0,.556.556,0,0,1,0-1.053A2.012,2.012,0,0,1,405.959,289.455Z" transform="translate(-203.237 -234.529)"/><path class="a" d="M359.769,312.02a.556.556,0,0,1,0,1.053,2.02,2.02,0,0,1-1.823,0,.556.556,0,0,1,0-1.053A2.012,2.012,0,0,1,359.769,312.02Z" transform="translate(-219.005 -226.826)"/><path class="a" d="M363.322,309.969a.555.555,0,0,1,0,1.052,2.012,2.012,0,0,1-1.823,0,.555.555,0,0,1,0-1.052A2.012,2.012,0,0,1,363.322,309.969Z" transform="translate(-217.792 -227.526)"/><path class="a" d="M356.216,309.969a.555.555,0,0,1,0,1.052,2.012,2.012,0,0,1-1.823,0,.555.555,0,0,1,0-1.052A2.012,2.012,0,0,1,356.216,309.969Z" transform="translate(-220.218 -227.526)"/><path class="a" d="M359.769,307.916a.556.556,0,0,1,0,1.053,2.012,2.012,0,0,1-1.823,0,.556.556,0,0,1,0-1.053A2.02,2.02,0,0,1,359.769,307.916Z" transform="translate(-219.005 -228.226)"/><path class="a" d="M352.632,307.9a.555.555,0,0,1,0,1.052,2.011,2.011,0,0,1-1.823,0,.555.555,0,0,1,0-1.052A2.011,2.011,0,0,1,352.632,307.9Z" transform="translate(-221.441 -228.234)"/><path class="a" d="M356.185,305.843a.556.556,0,0,1,0,1.053,2.012,2.012,0,0,1-1.823,0,.556.556,0,0,1,0-1.053A2.02,2.02,0,0,1,356.185,305.843Z" transform="translate(-220.228 -228.934)"/><path class="a" d="M349.079,305.843a.556.556,0,0,1,0,1.053,2.012,2.012,0,0,1-1.823,0,.555.555,0,0,1,0-1.052A2.016,2.016,0,0,1,349.079,305.843Z" transform="translate(-222.654 -228.934)"/><path class="a" d="M352.632,303.793a.556.556,0,0,1,0,1.053,2.02,2.02,0,0,1-1.823,0,.556.556,0,0,1,0-1.053A2.012,2.012,0,0,1,352.632,303.793Z" transform="translate(-221.441 -229.634)"/><path class="a" d="M345.526,303.793a.556.556,0,0,1,0,1.053,2.02,2.02,0,0,1-1.823,0,.556.556,0,0,1,0-1.053A2.012,2.012,0,0,1,345.526,303.793Z" transform="translate(-223.867 -229.634)"/><path class="a" d="M349.079,301.742a.555.555,0,0,1,0,1.052,2.012,2.012,0,0,1-1.823,0,.555.555,0,0,1,0-1.052A2.012,2.012,0,0,1,349.079,301.742Z" transform="translate(-222.654 -230.334)"/><path class="a" d="M341.973,301.742a.555.555,0,0,1,0,1.052,2.012,2.012,0,0,1-1.823,0,.555.555,0,0,1,0-1.052A2.012,2.012,0,0,1,341.973,301.742Z" transform="translate(-225.08 -230.334)"/><path class="a" d="M345.526,299.689a.556.556,0,0,1,0,1.053,2.012,2.012,0,0,1-1.823,0,.556.556,0,0,1,0-1.053A2.02,2.02,0,0,1,345.526,299.689Z" transform="translate(-223.867 -231.035)"/><path class="a" d="M338.42,299.689a.556.556,0,0,1,0,1.053,2.012,2.012,0,0,1-1.823,0,.556.556,0,0,1,0-1.053A2.02,2.02,0,0,1,338.42,299.689Z" transform="translate(-226.293 -231.035)"/><path class="a" d="M341.973,297.639a.556.556,0,0,1,0,1.053,2.02,2.02,0,0,1-1.823,0,.556.556,0,0,1,0-1.053A2.012,2.012,0,0,1,341.973,297.639Z" transform="translate(-225.08 -231.735)"/><path class="a" d="M334.867,297.639a.556.556,0,0,1,0,1.053,2.02,2.02,0,0,1-1.823,0,.556.556,0,0,1,0-1.053A2.012,2.012,0,0,1,334.867,297.639Z" transform="translate(-227.506 -231.735)"/><path class="a" d="M338.42,295.588a.555.555,0,0,1,0,1.052,2.012,2.012,0,0,1-1.823,0,.555.555,0,0,1,0-1.052A2.012,2.012,0,0,1,338.42,295.588Z" transform="translate(-226.293 -232.435)"/><path class="a" d="M331.314,295.588a.555.555,0,0,1,0,1.052,2.012,2.012,0,0,1-1.823,0,.555.555,0,0,1,0-1.052A2.012,2.012,0,0,1,331.314,295.588Z" transform="translate(-228.718 -232.435)"/><path class="a" d="M334.867,293.535a.556.556,0,0,1,0,1.053,2.02,2.02,0,0,1-1.823,0,.556.556,0,0,1,0-1.053A2.02,2.02,0,0,1,334.867,293.535Z" transform="translate(-227.506 -233.135)"/><path class="a" d="M327.761,293.535a.556.556,0,0,1,0,1.053,2.012,2.012,0,0,1-1.823,0,.556.556,0,0,1,0-1.053A2.02,2.02,0,0,1,327.761,293.535Z" transform="translate(-229.931 -233.135)"/><path class="a" d="M331.314,291.485a.555.555,0,0,1,0,1.052,2.012,2.012,0,0,1-1.823,0,.555.555,0,0,1,0-1.052A2.012,2.012,0,0,1,331.314,291.485Z" transform="translate(-228.718 -233.836)"/><path class="a" d="M324.177,291.462a.556.556,0,0,1,0,1.053,2.012,2.012,0,0,1-1.823,0,.556.556,0,0,1,0-1.053A2.02,2.02,0,0,1,324.177,291.462Z" transform="translate(-231.155 -233.843)"/><path class="a" d="M327.73,289.412a.555.555,0,0,1,0,1.052,2.012,2.012,0,0,1-1.823,0,.555.555,0,0,1,0-1.052A2.012,2.012,0,0,1,327.73,289.412Z" transform="translate(-229.942 -234.543)"/><path class="a" d="M320.624,289.412a.555.555,0,0,1,0,1.052,2.012,2.012,0,0,1-1.823,0,.555.555,0,0,1,0-1.052A2.012,2.012,0,0,1,320.624,289.412Z" transform="translate(-232.368 -234.543)"/><path class="a" d="M324.177,287.361a.555.555,0,0,1,0,1.052,2.012,2.012,0,0,1-1.823,0,.555.555,0,0,1,0-1.052A2.012,2.012,0,0,1,324.177,287.361Z" transform="translate(-231.155 -235.244)"/><path class="a" d="M317.071,287.361a.555.555,0,0,1,0,1.052,2.012,2.012,0,0,1-1.823,0,.555.555,0,0,1,0-1.052A2.012,2.012,0,0,1,317.071,287.361Z" transform="translate(-233.581 -235.244)"/><path class="a" d="M320.624,285.308a.556.556,0,0,1,0,1.053,2.012,2.012,0,0,1-1.823,0,.556.556,0,0,1,0-1.053A2.02,2.02,0,0,1,320.624,285.308Z" transform="translate(-232.368 -235.944)"/><path class="a" d="M313.518,285.308a.556.556,0,0,1,0,1.053,2.012,2.012,0,0,1-1.823,0,.556.556,0,0,1,0-1.053A2.02,2.02,0,0,1,313.518,285.308Z" transform="translate(-234.793 -235.944)"/><path class="a" d="M317.071,283.258a.556.556,0,0,1,0,1.053,2.02,2.02,0,0,1-1.823,0,.556.556,0,0,1,0-1.053A2.012,2.012,0,0,1,317.071,283.258Z" transform="translate(-233.581 -236.644)"/><path class="a" d="M411.249,289.484a2.012,2.012,0,0,1,1.823,0,.555.555,0,0,1,0,1.052,2.016,2.016,0,0,1-1.823,0A.556.556,0,0,1,411.249,289.484Z" transform="translate(-200.809 -234.519)"/><path class="a" d="M416.629,287.429a.556.556,0,0,1,0,1.053,2.02,2.02,0,0,1-1.823,0,.556.556,0,0,1,0-1.053A2.02,2.02,0,0,1,416.629,287.429Z" transform="translate(-199.595 -235.22)"/><path class="a" d="M407.7,287.433a2.016,2.016,0,0,1,1.823,0,.556.556,0,0,1,0,1.053,2.012,2.012,0,0,1-1.823,0A.555.555,0,0,1,407.7,287.433Z" transform="translate(-202.022 -235.219)"/><ellipse class="a" cx="1.289" cy="0.744" rx="1.289" ry="0.744" transform="translate(210.068 49.24)"/></g><g transform="translate(275.678 0)"><ellipse class="a" cx="1.289" cy="0.744" rx="1.289" ry="0.744" transform="translate(47.701 49.494)"/><path class="a" d="M501.1,282.98a.556.556,0,0,1,0,1.053,2.012,2.012,0,0,1-1.823,0,.556.556,0,0,1,0-1.053A2.021,2.021,0,0,1,501.1,282.98Z" transform="translate(-446.437 -236.021)"/><path class="a" d="M504.657,280.93a.556.556,0,0,1,0,1.053,2.02,2.02,0,0,1-1.823,0,.556.556,0,0,1,0-1.053A2.012,2.012,0,0,1,504.657,280.93Z" transform="translate(-445.224 -236.721)"/><path class="a" d="M508.21,278.879a.555.555,0,0,1,0,1.052,2.012,2.012,0,0,1-1.823,0,.555.555,0,0,1,0-1.052A2.012,2.012,0,0,1,508.21,278.879Z" transform="translate(-444.011 -237.421)"/><path class="a" d="M511.763,276.826a.556.556,0,0,1,0,1.053,2.012,2.012,0,0,1-1.823,0,.556.556,0,0,1,0-1.053A2.02,2.02,0,0,1,511.763,276.826Z" transform="translate(-442.798 -238.122)"/><path class="a" d="M515.316,274.776a.556.556,0,0,1,0,1.053,2.017,2.017,0,0,1-1.822,0,.556.556,0,0,1,0-1.053A2.009,2.009,0,0,1,515.316,274.776Z" transform="translate(-441.585 -238.822)"/><path class="a" d="M479.786,291.187a.556.556,0,0,1,0,1.053,2.02,2.02,0,0,1-1.823,0,.556.556,0,0,1,0-1.053A2.012,2.012,0,0,1,479.786,291.187Z" transform="translate(-453.714 -233.22)"/><path class="a" d="M483.339,289.136a.555.555,0,0,1,0,1.052,2.012,2.012,0,0,1-1.823,0,.555.555,0,0,1,0-1.052A2.012,2.012,0,0,1,483.339,289.136Z" transform="translate(-452.501 -233.92)"/><path class="a" d="M486.892,287.084a.556.556,0,0,1,0,1.053,2.012,2.012,0,0,1-1.823,0,.556.556,0,0,1,0-1.053A2.012,2.012,0,0,1,486.892,287.084Z" transform="translate(-451.288 -234.62)"/><path class="a" d="M490.445,285.033a.555.555,0,0,1,0,1.052,2.016,2.016,0,0,1-1.823,0,.556.556,0,0,1,0-1.053A2.012,2.012,0,0,1,490.445,285.033Z" transform="translate(-450.075 -235.321)"/><path class="a" d="M494,282.98a.556.556,0,0,1,0,1.053,2.012,2.012,0,0,1-1.823,0,.556.556,0,0,1,0-1.053A2.02,2.02,0,0,1,494,282.98Z" transform="translate(-448.862 -236.021)"/><path class="a" d="M497.551,280.93a.556.556,0,0,1,0,1.053,2.016,2.016,0,0,1-1.823,0,.556.556,0,0,1,0-1.053A2.012,2.012,0,0,1,497.551,280.93Z" transform="translate(-447.65 -236.721)"/><path class="a" d="M501.1,278.879a.555.555,0,0,1,0,1.052,2.012,2.012,0,0,1-1.823,0,.555.555,0,0,1,0-1.052A2.012,2.012,0,0,1,501.1,278.879Z" transform="translate(-446.437 -237.421)"/><path class="a" d="M504.657,276.826a.556.556,0,0,1,0,1.053,2.012,2.012,0,0,1-1.823,0,.556.556,0,0,1,0-1.053A2.02,2.02,0,0,1,504.657,276.826Z" transform="translate(-445.224 -238.122)"/><path class="a" d="M508.21,274.776a.556.556,0,0,1,0,1.053,2.02,2.02,0,0,1-1.823,0,.556.556,0,0,1,0-1.053A2.012,2.012,0,0,1,508.21,274.776Z" transform="translate(-444.011 -238.822)"/><path class="a" d="M511.763,272.725a.555.555,0,0,1,0,1.052,2.009,2.009,0,0,1-1.822,0,.555.555,0,0,1,0-1.052A2.009,2.009,0,0,1,511.763,272.725Z" transform="translate(-442.798 -239.522)"/><ellipse class="a" cx="1.289" cy="0.744" rx="1.289" ry="0.744" transform="translate(71.531 30.232)"/><path class="a" d="M472.68,291.187a.556.556,0,0,1,0,1.053,2.02,2.02,0,0,1-1.823,0,.556.556,0,0,1,0-1.053A2.012,2.012,0,0,1,472.68,291.187Z" transform="translate(-456.14 -233.22)"/><path class="a" d="M476.233,289.136a.555.555,0,0,1,0,1.052,2.012,2.012,0,0,1-1.823,0,.555.555,0,0,1,0-1.052A2.012,2.012,0,0,1,476.233,289.136Z" transform="translate(-454.927 -233.92)"/><path class="a" d="M479.786,287.083a.556.556,0,0,1,0,1.053,2.012,2.012,0,0,1-1.823,0,.556.556,0,0,1,0-1.053A2.02,2.02,0,0,1,479.786,287.083Z" transform="translate(-453.714 -234.62)"/><path class="a" d="M483.339,285.033a.556.556,0,0,1,0,1.053,2.02,2.02,0,0,1-1.823,0,.556.556,0,0,1,0-1.053A2.012,2.012,0,0,1,483.339,285.033Z" transform="translate(-452.501 -235.321)"/><path class="a" d="M486.892,282.982a.555.555,0,0,1,0,1.052,2.012,2.012,0,0,1-1.823,0,.555.555,0,0,1,0-1.052A2.012,2.012,0,0,1,486.892,282.982Z" transform="translate(-451.288 -236.021)"/><ellipse class="a" cx="1.289" cy="0.744" rx="1.289" ry="0.744" transform="translate(38.169 43.991)"/><path class="a" d="M469.127,289.136a.555.555,0,0,1,0,1.052,2.012,2.012,0,0,1-1.823,0,.555.555,0,0,1,0-1.052A2.012,2.012,0,0,1,469.127,289.136Z" transform="translate(-457.353 -233.92)"/><path class="a" d="M472.68,287.083a.556.556,0,0,1,0,1.053,2.012,2.012,0,0,1-1.823,0,.556.556,0,0,1,0-1.053A2.02,2.02,0,0,1,472.68,287.083Z" transform="translate(-456.14 -234.62)"/><path class="a" d="M465.543,287.063a.555.555,0,0,1,0,1.052,2.012,2.012,0,0,1-1.823,0,.555.555,0,0,1,0-1.052A2.012,2.012,0,0,1,465.543,287.063Z" transform="translate(-458.576 -234.628)"/><path class="a" d="M469.1,285.01a.556.556,0,0,1,0,1.053,2.012,2.012,0,0,1-1.823,0,.556.556,0,0,1,0-1.053A2.02,2.02,0,0,1,469.1,285.01Z" transform="translate(-457.363 -235.328)"/><path class="a" d="M461.99,285.01a.556.556,0,0,1,0,1.053,2.012,2.012,0,0,1-1.823,0,.555.555,0,0,1,0-1.053A2.02,2.02,0,0,1,461.99,285.01Z" transform="translate(-459.789 -235.328)"/><path class="a" d="M465.543,282.96a.556.556,0,0,1,0,1.053,2.02,2.02,0,0,1-1.823,0,.556.556,0,0,1,0-1.053A2.012,2.012,0,0,1,465.543,282.96Z" transform="translate(-458.576 -236.028)"/><path class="a" d="M517.052,268.651a2.012,2.012,0,0,1,1.823,0,.555.555,0,0,1,0,1.052,2.016,2.016,0,0,1-1.823,0A.556.556,0,0,1,517.052,268.651Z" transform="translate(-440.37 -240.913)"/><path class="a" d="M522.434,266.6a.556.556,0,0,1,0,1.053,2.02,2.02,0,0,1-1.823,0,.556.556,0,0,1,0-1.053A2.016,2.016,0,0,1,522.434,266.6Z" transform="translate(-439.156 -241.614)"/><path class="a" d="M525.987,264.546a.555.555,0,0,1,0,1.052,2.012,2.012,0,0,1-1.823,0,.555.555,0,0,1,0-1.052A2.012,2.012,0,0,1,525.987,264.546Z" transform="translate(-437.943 -242.314)"/><path class="a" d="M529.54,262.493a.556.556,0,0,1,0,1.053,2.012,2.012,0,0,1-1.823,0,.556.556,0,0,1,0-1.053A2.02,2.02,0,0,1,529.54,262.493Z" transform="translate(-436.73 -243.014)"/><path class="a" d="M533.093,260.443a.556.556,0,0,1,0,1.053,2.02,2.02,0,0,1-1.823,0,.556.556,0,0,1,0-1.053A2.012,2.012,0,0,1,533.093,260.443Z" transform="translate(-435.517 -243.715)"/><path class="a" d="M536.646,258.392a.555.555,0,0,1,0,1.052,2.012,2.012,0,0,1-1.823,0,.555.555,0,0,1,0-1.052A2.012,2.012,0,0,1,536.646,258.392Z" transform="translate(-434.304 -244.415)"/><path class="a" d="M540.2,256.339a.556.556,0,0,1,0,1.053,2.02,2.02,0,0,1-1.823,0,.556.556,0,0,1,0-1.053A2.02,2.02,0,0,1,540.2,256.339Z" transform="translate(-433.091 -245.115)"/><path class="a" d="M543.752,254.289a.555.555,0,0,1,0,1.052,2.012,2.012,0,0,1-1.823,0,.555.555,0,0,1,0-1.052A2.012,2.012,0,0,1,543.752,254.289Z" transform="translate(-431.878 -245.816)"/><path class="a" d="M547.3,252.238a.555.555,0,0,1,0,1.052,2.012,2.012,0,0,1-1.823,0,.555.555,0,0,1,0-1.052A2.012,2.012,0,0,1,547.3,252.238Z" transform="translate(-430.665 -246.516)"/><path class="a" d="M513.5,266.6a2.016,2.016,0,0,1,1.823,0,.556.556,0,0,1,0,1.053,2.012,2.012,0,0,1-1.823,0A.555.555,0,0,1,513.5,266.6Z" transform="translate(-441.583 -241.613)"/><path class="a" d="M518.881,264.546a.555.555,0,0,1,0,1.052,2.012,2.012,0,0,1-1.823,0,.555.555,0,0,1,0-1.052A2.012,2.012,0,0,1,518.881,264.546Z" transform="translate(-440.369 -242.314)"/><path class="a" d="M522.434,262.493a.556.556,0,0,1,0,1.053,2.012,2.012,0,0,1-1.823,0,.556.556,0,0,1,0-1.053A2.02,2.02,0,0,1,522.434,262.493Z" transform="translate(-439.156 -243.014)"/><path class="a" d="M525.987,260.443a.556.556,0,0,1,0,1.053,2.02,2.02,0,0,1-1.823,0,.556.556,0,0,1,0-1.053A2.012,2.012,0,0,1,525.987,260.443Z" transform="translate(-437.943 -243.715)"/><path class="a" d="M529.54,258.392a.555.555,0,0,1,0,1.052,2.012,2.012,0,0,1-1.823,0,.555.555,0,0,1,0-1.052A2.012,2.012,0,0,1,529.54,258.392Z" transform="translate(-436.73 -244.415)"/><path class="a" d="M533.093,256.339a.556.556,0,0,1,0,1.053,2.02,2.02,0,0,1-1.823,0,.556.556,0,0,1,0-1.053A2.02,2.02,0,0,1,533.093,256.339Z" transform="translate(-435.517 -245.115)"/><path class="a" d="M536.646,254.289a.555.555,0,0,1,0,1.052,2.012,2.012,0,0,1-1.823,0,.555.555,0,0,1,0-1.052A2.012,2.012,0,0,1,536.646,254.289Z" transform="translate(-434.304 -245.816)"/><path class="a" d="M540.2,252.238a.555.555,0,0,1,0,1.052,2.012,2.012,0,0,1-1.823,0,.555.555,0,0,1,0-1.052A2.012,2.012,0,0,1,540.2,252.238Z" transform="translate(-433.091 -246.516)"/><path class="a" d="M543.752,250.185a.556.556,0,0,1,0,1.053,2.02,2.02,0,0,1-1.823,0,.556.556,0,0,1,0-1.053A2.02,2.02,0,0,1,543.752,250.185Z" transform="translate(-431.878 -247.216)"/><path class="a" d="M547.3,248.135a.555.555,0,0,1,0,1.052,2.012,2.012,0,0,1-1.823,0,.555.555,0,0,1,0-1.052A2.012,2.012,0,0,1,547.3,248.135Z" transform="translate(-430.665 -247.916)"/></g><g transform="translate(214.819 58.247)"><path class="a" d="M445.074,307.99a.556.556,0,0,1,0,1.053,2.012,2.012,0,0,1-1.823,0,.555.555,0,0,1,0-1.053A2.02,2.02,0,0,1,445.074,307.99Z" transform="translate(-404.704 -285.731)"/><path class="a" d="M448.627,305.94a.556.556,0,0,1,0,1.053,2.02,2.02,0,0,1-1.823,0,.555.555,0,0,1,0-1.053A2.012,2.012,0,0,1,448.627,305.94Z" transform="translate(-403.491 -286.431)"/><path class="a" d="M452.18,303.889a.555.555,0,0,1,0,1.052,2.012,2.012,0,0,1-1.823,0,.555.555,0,0,1,0-1.052A2.012,2.012,0,0,1,452.18,303.889Z" transform="translate(-402.278 -287.131)"/><path class="a" d="M437.967,307.99a.556.556,0,0,1,0,1.053,2.012,2.012,0,0,1-1.823,0,.556.556,0,0,1,0-1.053A2.017,2.017,0,0,1,437.967,307.99Z" transform="translate(-407.13 -285.731)"/><path class="a" d="M441.521,305.94a.556.556,0,0,1,0,1.053,2.02,2.02,0,0,1-1.823,0,.556.556,0,0,1,0-1.053A2.012,2.012,0,0,1,441.521,305.94Z" transform="translate(-405.917 -286.431)"/><path class="a" d="M445.074,303.889a.555.555,0,0,1,0,1.052,2.012,2.012,0,0,1-1.823,0,.555.555,0,0,1,0-1.052A2.012,2.012,0,0,1,445.074,303.889Z" transform="translate(-404.704 -287.131)"/><path class="a" d="M448.627,301.836a.556.556,0,0,1,0,1.053,2.012,2.012,0,0,1-1.823,0,.556.556,0,0,1,0-1.053A2.02,2.02,0,0,1,448.627,301.836Z" transform="translate(-403.491 -287.831)"/><path class="a" d="M452.18,299.786a.556.556,0,0,1,0,1.053,2.02,2.02,0,0,1-1.823,0,.556.556,0,0,1,0-1.053A2.012,2.012,0,0,1,452.18,299.786Z" transform="translate(-402.278 -288.532)"/><ellipse class="a" cx="1.289" cy="0.744" rx="1.289" ry="0.744" transform="translate(23.871 19.291)"/><path class="a" d="M437.968,303.889a.555.555,0,0,1,0,1.052,2.012,2.012,0,0,1-1.823,0,.555.555,0,0,1,0-1.052A2.012,2.012,0,0,1,437.968,303.889Z" transform="translate(-407.13 -287.131)"/><path class="a" d="M441.521,301.836a.556.556,0,0,1,0,1.053,2.012,2.012,0,0,1-1.823,0,.556.556,0,0,1,0-1.053A2.02,2.02,0,0,1,441.521,301.836Z" transform="translate(-405.917 -287.831)"/><path class="a" d="M445.074,299.786a.556.556,0,0,1,0,1.053,2.02,2.02,0,0,1-1.823,0,.556.556,0,0,1,0-1.053A2.012,2.012,0,0,1,445.074,299.786Z" transform="translate(-404.704 -288.532)"/><path class="a" d="M430.861,303.889a.556.556,0,0,1,0,1.053,2.02,2.02,0,0,1-1.823,0,.556.556,0,0,1,0-1.053A2.012,2.012,0,0,1,430.861,303.889Z" transform="translate(-409.556 -287.131)"/><path class="a" d="M434.414,301.836a.556.556,0,0,1,0,1.053,2.012,2.012,0,0,1-1.823,0,.555.555,0,0,1,0-1.052A2.016,2.016,0,0,1,434.414,301.836Z" transform="translate(-408.343 -287.831)"/><path class="a" d="M427.308,301.838a.555.555,0,0,1,0,1.052,2.012,2.012,0,0,1-1.823,0,.555.555,0,0,1,0-1.052A2.012,2.012,0,0,1,427.308,301.838Z" transform="translate(-410.769 -287.831)"/><ellipse class="a" cx="1.289" cy="0.744" rx="1.289" ry="0.744" transform="translate(19.105 11.036)"/><path class="a" d="M423.755,299.785a.556.556,0,0,1,0,1.053,2.02,2.02,0,0,1-1.823,0,.556.556,0,0,1,0-1.053A2.02,2.02,0,0,1,423.755,299.785Z" transform="translate(-411.981 -288.532)"/><path class="a" d="M427.308,297.735a.555.555,0,0,1,0,1.052,2.012,2.012,0,0,1-1.823,0,.555.555,0,0,1,0-1.052A2.012,2.012,0,0,1,427.308,297.735Z" transform="translate(-410.769 -289.232)"/><path class="a" d="M420.171,297.712a.556.556,0,0,1,0,1.053,2.017,2.017,0,0,1-1.822,0,.556.556,0,0,1,0-1.053A2.017,2.017,0,0,1,420.171,297.712Z" transform="translate(-413.205 -289.239)"/><path class="a" d="M423.724,295.662a.555.555,0,0,1,0,1.052,2.009,2.009,0,0,1-1.822,0,.555.555,0,0,1,0-1.052A2.009,2.009,0,0,1,423.724,295.662Z" transform="translate(-411.992 -289.94)"/><path class="a" d="M416.618,295.662a.555.555,0,0,1,0,1.052,2.012,2.012,0,0,1-1.823,0,.555.555,0,0,1,0-1.052A2.012,2.012,0,0,1,416.618,295.662Z" transform="translate(-414.418 -289.94)"/><path class="a" d="M420.171,293.609a.556.556,0,0,1,0,1.053,2.009,2.009,0,0,1-1.822,0,.556.556,0,0,1,0-1.053A2.018,2.018,0,0,1,420.171,293.609Z" transform="translate(-413.205 -290.64)"/><path class="a" d="M416.618,291.559a.556.556,0,0,1,0,1.053,2.02,2.02,0,0,1-1.823,0,.556.556,0,0,1,0-1.053A2.012,2.012,0,0,1,416.618,291.559Z" transform="translate(-414.418 -291.34)"/></g></g><g transform="translate(255.46 47.517)"><g transform="translate(0 169.858)"><path class="b" d="M554.868,262.062,407.637,346.819c-2.938,1.7-8.068,1.484-11.461-.475l-137.726-79.2c-3.392-1.958-3.76-4.921-.822-6.617l147.229-84.757c2.938-1.7,8.07-1.484,11.461.475l137.726,79.2C557.437,257.4,557.806,260.367,554.868,262.062Z" transform="translate(-254.99 -173.985)"/><path class="c" d="M554.868,266.648,407.637,351.4c-2.938,1.7-8.068,1.484-11.461-.475l-137.726-79.2c-3.392-1.958-3.76-4.92-.822-6.617l147.229-84.757c2.938-1.7,8.07-1.484,11.461.475l137.726,79.2C557.437,261.99,557.806,264.953,554.868,266.648Z" transform="translate(-254.99 -172.419)"/><path class="a" d="M402.826,348.77a13.981,13.981,0,0,1-6.81-1.7l-137.724-79.2c-1.992-1.151-3.135-2.722-3.135-4.311a4.043,4.043,0,0,1,2.311-3.439L404.7,175.367c3.112-1.795,8.547-1.584,12.114.478l137.724,79.2c1.992,1.151,3.135,2.722,3.135,4.311a4.041,4.041,0,0,1-2.311,3.439h0L408.13,347.55A10.821,10.821,0,0,1,402.826,348.77ZM410,175.437a9.48,9.48,0,0,0-4.649,1.065L258.121,261.26a2.774,2.774,0,0,0-1.655,2.306c0,1.109.9,2.268,2.479,3.178l137.724,79.2c3.209,1.854,8.052,2.063,10.807.476l147.231-84.758a2.771,2.771,0,0,0,1.655-2.306c0-1.108-.9-2.267-2.479-3.178l-137.724-79.2A12.648,12.648,0,0,0,410,175.437Z" transform="translate(-255.157 -174.148)"/></g><g transform="translate(216.598 217.225)"><path class="b" d="M586.952,256.082l-89.641,51.754a6.722,6.722,0,0,1-6.047-.251L418.6,265.8c-1.789-1.033-1.984-2.6-.433-3.49l89.641-51.755a6.723,6.723,0,0,1,6.047.251l72.663,41.785C588.307,253.623,588.5,255.187,586.952,256.082Z" transform="translate(-416.467 -209.294)"/><path class="d" d="M586.777,259.134l-89.641,51.754a6.718,6.718,0,0,1-6.047-.251l-72.664-41.783c-1.789-1.034-1.984-2.6-.433-3.492l89.641-51.754a6.719,6.719,0,0,1,6.047.251l72.663,41.785C588.132,256.676,588.327,258.239,586.777,259.134Z" transform="translate(-416.526 -208.251)"/><path class="a" d="M494.845,309.262a7.642,7.642,0,0,1-3.741-.944l-72.663-41.783a3.116,3.116,0,0,1-1.808-2.542,2.428,2.428,0,0,1,1.372-2.082l89.642-51.755a7.327,7.327,0,0,1,6.7.251L587.01,252.19a3.117,3.117,0,0,1,1.808,2.542,2.43,2.43,0,0,1-1.372,2.083L497.8,308.569A6,6,0,0,1,494.845,309.262Zm15.746-98.488a4.693,4.693,0,0,0-2.29.515L418.66,263.043a1.223,1.223,0,0,0-.718.95c0,.465.431.991,1.152,1.408l72.663,41.783a6.114,6.114,0,0,0,5.392.252l89.642-51.755a1.224,1.224,0,0,0,.719-.95c0-.464-.432-.991-1.154-1.408l-72.663-41.782A6.392,6.392,0,0,0,510.591,210.774Z" transform="translate(-416.633 -209.461)"/></g><g transform="translate(94.608 257.973)"><g transform="translate(0 1.25)"><path class="e" d="M352.29,266.052a5.741,5.741,0,0,1-2.9-.787l-23.7-13.864.663-1.129,23.7,13.864a4.441,4.441,0,0,0,4.471.008l40.132-23.372.659,1.129-40.131,23.372A5.731,5.731,0,0,1,352.29,266.052Z" transform="translate(-325.688 -240.771)"/></g><g transform="translate(2.39)"><path class="a" d="M351.682,265.121a5.755,5.755,0,0,1-2.9-.787L327.47,251.842l.663-1.131L349.44,263.2a4.435,4.435,0,0,0,4.471.008l40.132-23.372.659,1.131-40.131,23.372A5.744,5.744,0,0,1,351.682,265.121Z" transform="translate(-327.47 -239.839)"/></g></g><g transform="translate(268.711 261.9)"><g transform="translate(0 1.251)"><rect class="e" width="1.31" height="55.835" transform="matrix(0.505, -0.863, 0.863, 0.505, 0, 1.13)"/></g><g transform="translate(0 0)"><rect class="a" width="1.31" height="55.835" transform="matrix(0.505, -0.863, 0.863, 0.505, 0, 1.13)"/></g></g><g transform="translate(324.159 241.775)"><g transform="translate(0 1.245)"><path class="e" d="M504.908,269.313l-.665-1.127,27.206-16.067a1.37,1.37,0,0,0-.015-2.366l-34.612-19.927.652-1.135,34.613,19.927a2.678,2.678,0,0,1,.028,4.628Z" transform="translate(-496.821 -228.691)"/></g><path class="a" d="M504.908,268.385l-.665-1.127,27.206-16.067a1.37,1.37,0,0,0-.015-2.366L496.821,228.9l.652-1.135,34.613,19.927a2.678,2.678,0,0,1,.028,4.628Z" transform="translate(-496.821 -227.763)"/></g><g transform="translate(110.289)"><g transform="translate(5.787)"><path class="a" d="M539.225,124.6,407.706,48.764a5.642,5.642,0,0,0-4.877-.376h-.005c-.106.042-4.762,2.023-5.866,2.492a.153.153,0,0,0-.028.263l2.255,1.8-56.8,226.172a6.9,6.9,0,0,0,3.246,7.658l130.574,75.288-.1,3.347a.057.057,0,0,0,.079.054L483,362.5a5.633,5.633,0,0,0,2.51-3.434l56.957-226.814A6.9,6.9,0,0,0,539.225,124.6Z" transform="translate(-341.527 -47.351)"/><path class="a" d="M476.289,366.377l-.652-.405-.013-.412.084-2.955L345.473,287.513a7.587,7.587,0,0,1-3.555-8.385L398.612,53.364l-1.926-1.543a.822.822,0,0,1-.3-.744.8.8,0,0,1,.48-.629l.723-.309c1.7-.723,5.072-2.157,5.162-2.193a6.321,6.321,0,0,1,5.449.417L539.719,124.2a7.589,7.589,0,0,1,3.553,8.386L486.315,359.4a6.31,6.31,0,0,1-2.8,3.831ZM398.155,51.321l1.933,1.547-56.9,226.58a6.27,6.27,0,0,0,2.939,6.931L477.04,361.861l-.081,2.8,5.95-2.588a4.977,4.977,0,0,0,2.134-2.994L542,132.263a6.269,6.269,0,0,0-2.938-6.932L407.544,49.5a5,5,0,0,0-4.315-.333C403.083,49.224,399.845,50.6,398.155,51.321Z" transform="translate(-341.693 -47.517)"/></g><g transform="translate(0 2.455)"><path class="b" d="M472.84,364.451,341.319,288.618a6.9,6.9,0,0,1-3.246-7.659L395.031,54.144a5.689,5.689,0,0,1,8.359-3.543l131.521,75.833a6.9,6.9,0,0,1,3.246,7.659L481.2,360.907A5.69,5.69,0,0,1,472.84,364.451Z" transform="translate(-337.213 -49.181)"/><path class="c" d="M537.81,130.549a6.815,6.815,0,0,0-1.461-1.155L404.83,53.562A5.688,5.688,0,0,0,396.47,57.1L339.512,283.918a6.889,6.889,0,0,0-.177,2.291,6.882,6.882,0,0,0,1.459,1.155L472.315,363.2a5.69,5.69,0,0,0,8.359-3.543l56.958-226.815A6.882,6.882,0,0,0,537.81,130.549Z" transform="translate(-336.721 -48.17)"/><path class="a" d="M475.84,366.038a6.326,6.326,0,0,1-3.162-.853L341.159,289.351a7.583,7.583,0,0,1-3.555-8.385L394.563,54.151a6.343,6.343,0,0,1,9.321-3.95L535.4,126.034a7.584,7.584,0,0,1,3.555,8.385L482,361.234a6.3,6.3,0,0,1-3.678,4.3A6.366,6.366,0,0,1,475.84,366.038Zm-2.507-1.989a5.033,5.033,0,0,0,7.4-3.135L537.687,134.1a6.269,6.269,0,0,0-2.939-6.934L403.229,51.335a5.034,5.034,0,0,0-7.4,3.136L338.875,281.286a6.264,6.264,0,0,0,2.938,6.931Z" transform="translate(-337.379 -49.348)"/></g><g transform="translate(6.805 9.676)"><path class="e" d="M345.066,276.316,399.613,59.672a2,2,0,0,1,2.934-1.242l121.836,70.206a3.84,3.84,0,0,1,1.808,4.266L471.643,349.545a2,2,0,0,1-2.934,1.243L346.874,280.583A3.844,3.844,0,0,1,345.066,276.316Z" transform="translate(-341.6 -53.559)"/><path class="f" d="M342.452,276.752l55.9-222.021,119.9,69.77-55.9,222.021Z" transform="translate(-342.452 -54.731)"/><path class="a" d="M469.871,351.878a2.651,2.651,0,0,1-1.321-.355L346.713,281.317a4.514,4.514,0,0,1-2.115-4.994L399.145,59.68a2.652,2.652,0,0,1,3.9-1.65l121.836,70.206a4.515,4.515,0,0,1,2.115,4.994L472.444,349.873a2.657,2.657,0,0,1-2.573,2.005Zm-124-75.236a3.2,3.2,0,0,0,1.5,3.54L469.2,350.388a1.34,1.34,0,0,0,1.97-.836l54.546-216.643a3.2,3.2,0,0,0-1.5-3.54L402.386,59.163a1.345,1.345,0,0,0-1.973.837Z" transform="translate(-341.766 -53.727)"/></g><g transform="translate(69.404 2.715)"><g transform="translate(77.324 174.109)"><rect class="b" width="140.197" height="0.917" transform="translate(0 136.011) rotate(-75.964)"/></g><g transform="translate(119.366 129.788)"><rect class="b" width="13.033" height="0.915" transform="translate(0 12.638) rotate(-75.844)"/></g><g transform="translate(114.863 147.988)"><rect class="b" width="13.032" height="0.917" transform="matrix(0.245, -0.969, 0.969, 0.245, 0, 12.635)"/></g><g transform="translate(20.781 11.982)"><path class="b" d="M515.014,145.684l-.889-.224,3.936-15.675c.846-4.1-2.6-6.585-2.743-6.688l-110.7-63.829.457-.794,110.737,63.85c.2.14,4.121,2.95,3.146,7.665Z" transform="translate(-404.613 -58.474)"/></g><rect class="b" width="0.916" height="17.378" transform="translate(0 0.794) rotate(-60.033)"/></g></g><g transform="translate(301.148 187.016)"><g transform="translate(0 16.007)"><g transform="translate(0.055 14.029)"><path class="b" d="M529.692,234.228l-.11-23.427-49.385-.972.111,23.014a1.251,1.251,0,0,0,.718,1.489l22.4,13.25a5.065,5.065,0,0,0,4.555-.141l20.589-11.6C529.379,235.385,529.759,234.785,529.692,234.228Z" transform="translate(-479.54 -209.162)"/><path class="c" d="M486.3,210.01l.1,20.72a1.67,1.67,0,0,0,.833,1.556l22.245,13.156,17.006-9.583c.807-.455,1.187-1.054,1.12-1.611l-.11-23.427Z" transform="translate(-477.458 -209.101)"/><path class="g" d="M505.633,248.881a4.726,4.726,0,0,1-2.369-.566l-22.4-13.25a1.919,1.919,0,0,1-1.038-2.143l-.114-23.589,50.214.989a.49.49,0,0,1,.481.488l.111,23.552a2.416,2.416,0,0,1-1.451,2.22l-20.589,11.6A5.906,5.906,0,0,1,505.633,248.881Zm-24.61-38.215.107,22.449-.032.1c-.084.262.059.506.428.723l22.4,13.249a3.5,3.5,0,0,0,1.856.385v-25.22l11.67-7.852,11.64-2.887Z" transform="translate(-479.707 -209.332)"/></g><path class="b" d="M503.334,227.453l-22.4-13.25c-1.16-.685-1-1.862.354-2.625l20.589-11.6a5.065,5.065,0,0,1,4.555-.141l22.4,13.25c1.159.685,1,1.862-.355,2.625l-20.587,11.6A5.065,5.065,0,0,1,503.334,227.453Z" transform="translate(-479.499 -198.707)"/><path class="g" d="M505.537,228.749a4.735,4.735,0,0,1-2.37-.566l-22.4-13.249a1.984,1.984,0,0,1-1.1-1.722,2.5,2.5,0,0,1,1.465-2.038l20.587-11.6a5.709,5.709,0,0,1,5.21-.134l22.4,13.25a1.984,1.984,0,0,1,1.1,1.721,2.5,2.5,0,0,1-1.465,2.038l-20.587,11.6A5.9,5.9,0,0,1,505.537,228.749Zm-.969-28.57a4.64,4.64,0,0,0-2.208.534l-20.589,11.6c-.585.329-.8.687-.8.912,0,.27.284.479.455.579l22.4,13.25a4.41,4.41,0,0,0,3.9-.148l20.59-11.6c.583-.329.8-.687.8-.912,0-.27-.284-.479-.456-.579l-22.4-13.249A3.39,3.39,0,0,0,504.568,200.179Z" transform="translate(-479.666 -198.873)"/></g><g transform="translate(0.115)"><g transform="translate(0.003 10.142)"><path class="b" d="M529.691,209.793V199.719l-16.617-.376-6.561-3.879a5.057,5.057,0,0,0-4.555.141l-5.95,3.353-15.766-.357v10.1a1.36,1.36,0,0,0,.774,1.128l22.4,13.249a5.057,5.057,0,0,0,4.555-.141l20.589-11.6A1.815,1.815,0,0,0,529.691,209.793Z" transform="translate(-479.587 -194.334)"/><path class="d" d="M506.381,196.514l-4.091,2.3-8.1-.182-.325.182-7.341-.166v9.911a1.362,1.362,0,0,0,.775,1.128l20.393,12.06L526.421,211.2a1.816,1.816,0,0,0,1.127-1.547V199.579L510.93,199.2Z" transform="translate(-477.443 -193.813)"/><path class="g" d="M505.624,224.376a4.735,4.735,0,0,1-2.37-.566l-22.4-13.249a2,2,0,0,1-1.1-1.683V198.8a.689.689,0,0,1,.706-.689l15.55.351L501.8,195.2a5.7,5.7,0,0,1,5.21-.134l6.412,3.792,16.573.374a.524.524,0,0,1,.512.524v10.185a2.434,2.434,0,0,1-1.459,2.133l-20.589,11.6A5.9,5.9,0,0,1,505.624,224.376Zm-24.56-24.939v9.432c0,.259.284.465.453.563l22.4,13.25a3.392,3.392,0,0,0,1.686.386l-.027-12.424,18.023-7.662,5.6-2.459-16.146-.365-6.709-3.966a4.422,4.422,0,0,0-3.9.146l-6.107,3.443Z" transform="translate(-479.754 -194.501)"/></g><path class="b" d="M503.42,215.52l-22.4-13.25c-1.16-.687-1-1.862.354-2.625l20.587-11.6a5.061,5.061,0,0,1,4.555-.141l22.4,13.25c1.16.685,1,1.86-.354,2.625l-20.589,11.6A5.065,5.065,0,0,1,503.42,215.52Z" transform="translate(-479.585 -186.773)"/><path class="c" d="M501.87,190.213l-20.589,11.6a3.283,3.283,0,0,0-.463.315l22.3,13.186a5.065,5.065,0,0,0,4.555-.141l20.587-11.6a3.333,3.333,0,0,0,.464-.315l-22.3-13.186A5.065,5.065,0,0,0,501.87,190.213Z" transform="translate(-479.388 -186.033)"/><path class="g" d="M505.622,216.815a4.738,4.738,0,0,1-2.367-.565h0L480.849,203a1.984,1.984,0,0,1-1.1-1.72,2.5,2.5,0,0,1,1.462-2.039l20.59-11.6a5.7,5.7,0,0,1,5.21-.134l22.4,13.25a1.982,1.982,0,0,1,1.1,1.72,2.5,2.5,0,0,1-1.463,2.039l-20.589,11.6A5.9,5.9,0,0,1,505.622,216.815Zm-1.7-1.691a4.417,4.417,0,0,0,3.9-.149l20.589-11.6c.583-.33.794-.687.8-.912,0-.268-.284-.478-.456-.579l-22.4-13.25a4.4,4.4,0,0,0-3.9.149l-20.587,11.6c-.583.33-.794.687-.8.912,0,.268.284.478.455.579Z" transform="translate(-479.752 -186.94)"/><g transform="translate(9.694 5.287)"><path class="b" d="M501.668,208.582l-13.725-8.117c-.711-.421-.614-1.14.216-1.608l12.614-7.108a3.1,3.1,0,0,1,2.79-.086l13.726,8.117c.711.421.614,1.14-.217,1.608L504.459,208.5A3.1,3.1,0,0,1,501.668,208.582Z" transform="translate(-486.812 -190.714)"/><path class="d" d="M499.381,197.331l-7.835,4.414,8.73,5.163a3.107,3.107,0,0,0,2.791-.086l7.835-4.416-8.731-5.163A3.1,3.1,0,0,0,499.381,197.331Z" transform="translate(-485.42 -188.808)"/><path class="g" d="M503.085,209.7a3.155,3.155,0,0,1-1.583-.385L487.774,201.2a1.479,1.479,0,0,1-.8-1.276,1.775,1.775,0,0,1,1.026-1.466l12.614-7.108a3.718,3.718,0,0,1,3.445-.08l13.726,8.118a1.479,1.479,0,0,1,.8,1.276,1.775,1.775,0,0,1-1.026,1.467l-12.614,7.107A3.865,3.865,0,0,1,503.085,209.7Zm-.592-17.507a2.61,2.61,0,0,0-1.233.3l-12.614,7.108c-.29.164-.358.313-.359.341a.389.389,0,0,0,.156.133l13.726,8.118a2.449,2.449,0,0,0,2.135-.093l12.614-7.107c.292-.165.358-.314.359-.342a.386.386,0,0,0-.154-.134L503.4,192.394A1.819,1.819,0,0,0,502.493,192.191Z" transform="translate(-486.979 -190.881)"/></g><g transform="translate(9.694 5.312)"><path class="b" d="M487.943,200.484l2.288,1.353,10.542-5.94a3.1,3.1,0,0,1,2.79-.087L515,202.576l2.071-1.167c.832-.468.928-1.188.217-1.608l-13.726-8.118a3.1,3.1,0,0,0-2.79.086l-12.614,7.108C487.329,199.344,487.232,200.065,487.943,200.484Z" transform="translate(-486.812 -190.733)"/><path class="g" d="M515.16,203.5,503.4,196.542a2.468,2.468,0,0,0-2.135.094l-10.87,6.125-2.614-1.545a1.48,1.48,0,0,1-.8-1.276,1.775,1.775,0,0,1,1.026-1.466l12.614-7.108a3.715,3.715,0,0,1,3.443-.08L517.79,199.4a1.475,1.475,0,0,1,.8,1.274,1.777,1.777,0,0,1-1.026,1.467Zm-12.665-8.475a3.1,3.1,0,0,1,1.569.392l11.112,6.573,1.742-.982c.292-.164.358-.314.359-.342a.4.4,0,0,0-.153-.133L503.4,192.413a1.825,1.825,0,0,0-.9-.2Z" transform="translate(-486.979 -190.9)"/></g></g></g><g transform="translate(58.2 236.591)"><g transform="translate(0.003 10.141)"><path class="b" d="M348.484,246.752V236.678l-16.617-.376-6.559-3.879a5.057,5.057,0,0,0-4.555.141l-5.952,3.353-15.765-.357v10.1a1.359,1.359,0,0,0,.774,1.128l22.4,13.25a5.061,5.061,0,0,0,4.555-.142l20.587-11.6A1.815,1.815,0,0,0,348.484,246.752Z" transform="translate(-298.381 -231.293)"/><path class="d" d="M325.175,233.473l-4.091,2.3-8.1-.182-.325.182-7.34-.165v9.911a1.356,1.356,0,0,0,.774,1.127l20.394,12.062,18.728-10.554a1.814,1.814,0,0,0,1.127-1.545V236.538l-16.615-.374Z" transform="translate(-296.237 -230.772)"/><path class="h" d="M324.418,261.336a4.729,4.729,0,0,1-2.37-.566l-22.4-13.25a2,2,0,0,1-1.095-1.683V235.763a.689.689,0,0,1,.706-.689l15.549.351,5.795-3.265a5.7,5.7,0,0,1,5.21-.134l6.413,3.792,16.571.374a.525.525,0,0,1,.514.524V246.9a2.434,2.434,0,0,1-1.461,2.133l-20.587,11.6A5.92,5.92,0,0,1,324.418,261.336ZM299.856,236.4v9.434c0,.258.286.464.455.563l22.4,13.249a3.414,3.414,0,0,0,1.686.388l-.027-12.425,18.024-7.662,5.6-2.459-16.147-.365-6.708-3.966a4.422,4.422,0,0,0-3.9.148l-6.107,3.442Z" transform="translate(-298.548 -231.459)"/></g><path class="b" d="M322.214,252.479l-22.4-13.25c-1.16-.685-1-1.862.354-2.625L320.752,225a5.065,5.065,0,0,1,4.555-.141l22.4,13.25c1.159.687,1,1.862-.355,2.625l-20.587,11.6A5.061,5.061,0,0,1,322.214,252.479Z" transform="translate(-298.379 -223.732)"/><path class="c" d="M320.664,227.173l-20.589,11.6a3.315,3.315,0,0,0-.463.315l22.295,13.186a5.065,5.065,0,0,0,4.555-.141l20.589-11.6a3.1,3.1,0,0,0,.463-.315L325.22,227.031A5.061,5.061,0,0,0,320.664,227.173Z" transform="translate(-298.182 -222.992)"/><path class="h" d="M324.416,253.775a4.732,4.732,0,0,1-2.368-.565h0l-22.4-13.251a1.986,1.986,0,0,1-1.1-1.72,2.5,2.5,0,0,1,1.462-2.039L320.6,224.6a5.7,5.7,0,0,1,5.21-.135l22.4,13.25a1.987,1.987,0,0,1,1.1,1.721,2.5,2.5,0,0,1-1.463,2.038l-20.589,11.6A5.921,5.921,0,0,1,324.416,253.775Zm-1.7-1.693a4.424,4.424,0,0,0,3.9-.148l20.587-11.6c.585-.329.8-.687.8-.912,0-.268-.286-.478-.456-.578l-22.4-13.251a4.409,4.409,0,0,0-3.9.149l-20.589,11.6c-.582.33-.794.688-.8.912,0,.268.283.479.455.579Z" transform="translate(-298.546 -223.899)"/><g transform="translate(9.693 5.287)"><path class="b" d="M320.462,245.542l-13.726-8.118c-.711-.42-.613-1.14.217-1.608l12.613-7.108a3.1,3.1,0,0,1,2.791-.086l13.726,8.118c.711.42.613,1.14-.217,1.608l-12.613,7.107A3.1,3.1,0,0,1,320.462,245.542Z" transform="translate(-305.605 -227.673)"/><path class="d" d="M318.174,234.29l-7.835,4.414,8.731,5.163a3.1,3.1,0,0,0,2.791-.086l7.834-4.414-8.73-5.164A3.1,3.1,0,0,0,318.174,234.29Z" transform="translate(-304.213 -225.768)"/><path class="h" d="M321.878,246.659a3.15,3.15,0,0,1-1.581-.386l-13.728-8.118a1.479,1.479,0,0,1-.8-1.276,1.775,1.775,0,0,1,1.026-1.466l12.614-7.107a3.71,3.71,0,0,1,3.445-.08l13.728,8.117a1.479,1.479,0,0,1,.8,1.276,1.773,1.773,0,0,1-1.026,1.467l-12.613,7.107A3.871,3.871,0,0,1,321.878,246.659Zm-.59-17.509a2.626,2.626,0,0,0-1.233.3l-12.614,7.108c-.291.164-.358.313-.359.341a.387.387,0,0,0,.154.134l13.727,8.117a2.446,2.446,0,0,0,2.134-.093l12.616-7.107c.291-.165.358-.314.359-.341a.376.376,0,0,0-.156-.134l-13.726-8.118A1.827,1.827,0,0,0,321.288,229.15Z" transform="translate(-305.772 -227.84)"/></g><g transform="translate(9.693 5.313)"><path class="b" d="M306.736,237.443l2.288,1.353,10.542-5.94a3.1,3.1,0,0,1,2.791-.086l11.436,6.763,2.072-1.167c.83-.468.927-1.188.217-1.608l-13.726-8.118a3.1,3.1,0,0,0-2.791.087l-12.613,7.107C306.123,236.3,306.025,237.023,306.736,237.443Z" transform="translate(-305.605 -227.692)"/><path class="h" d="M333.954,240.457,322.19,233.5a2.468,2.468,0,0,0-2.135.093l-10.872,6.125-2.613-1.545a1.479,1.479,0,0,1-.8-1.276,1.775,1.775,0,0,1,1.026-1.466l12.614-7.107a3.711,3.711,0,0,1,3.443-.08l13.729,8.118a1.475,1.475,0,0,1,.8,1.274,1.774,1.774,0,0,1-1.026,1.467Zm-12.665-8.475a3.115,3.115,0,0,1,1.568.392l11.112,6.573,1.744-.982c.291-.164.358-.313.359-.341a.391.391,0,0,0-.154-.133l-13.728-8.119a1.827,1.827,0,0,0-.9-.2Z" transform="translate(-305.772 -227.86)"/></g></g><g transform="translate(293.136 271.226)"><g transform="translate(0.003 10.141)"><path class="b" d="M523.631,272.573V262.5l-16.617-.376-6.561-3.881a5.061,5.061,0,0,0-4.555.142l-5.95,3.352-15.766-.355v10.1a1.361,1.361,0,0,0,.775,1.127l22.4,13.25a5.057,5.057,0,0,0,4.555-.141l20.589-11.6A1.815,1.815,0,0,0,523.631,272.573Z" transform="translate(-473.529 -257.114)"/><path class="d" d="M500.32,259.293l-4.091,2.306-8.1-.182-.325.182-7.34-.166v9.911a1.36,1.36,0,0,0,.774,1.128l20.394,12.06L520.36,273.98a1.815,1.815,0,0,0,1.127-1.547V262.359l-16.617-.376Z" transform="translate(-471.384 -256.593)"/><path class="h" d="M499.563,287.156a4.727,4.727,0,0,1-2.369-.566l-22.4-13.249a2,2,0,0,1-1.094-1.683V261.584a.691.691,0,0,1,.706-.691l15.549.353,5.795-3.266a5.709,5.709,0,0,1,5.21-.134l6.413,3.792,16.571.376a.523.523,0,0,1,.512.525v10.185a2.431,2.431,0,0,1-1.459,2.133l-20.587,11.6A5.906,5.906,0,0,1,499.563,287.156ZM475,262.217v9.432c0,.259.286.465.455.563l22.4,13.25a3.392,3.392,0,0,0,1.686.386l-.027-12.424,18.024-7.662,5.6-2.459L507,262.939l-6.708-3.965a4.421,4.421,0,0,0-3.9.146l-6.107,3.442Z" transform="translate(-473.695 -257.28)"/></g><g transform="translate(0 0)"><path class="b" d="M497.361,278.3l-22.4-13.25c-1.16-.687-1-1.862.354-2.625l20.589-11.6a5.057,5.057,0,0,1,4.555-.141l22.4,13.25c1.16.685,1,1.86-.354,2.625l-20.587,11.6A5.065,5.065,0,0,1,497.361,278.3Z" transform="translate(-473.527 -249.553)"/><path class="c" d="M495.81,252.993l-20.587,11.6a3.029,3.029,0,0,0-.463.315l22.295,13.184a5.057,5.057,0,0,0,4.555-.141l20.589-11.6a3.4,3.4,0,0,0,.463-.315l-22.3-13.186A5.065,5.065,0,0,0,495.81,252.993Z" transform="translate(-473.329 -248.813)"/><path class="h" d="M499.561,279.595a4.73,4.73,0,0,1-2.366-.565h0l-22.4-13.25a1.986,1.986,0,0,1-1.1-1.721,2.506,2.506,0,0,1,1.462-2.039l20.589-11.6a5.71,5.71,0,0,1,5.21-.135l22.4,13.251a1.983,1.983,0,0,1,1.1,1.72,2.5,2.5,0,0,1-1.463,2.039l-20.587,11.6A5.908,5.908,0,0,1,499.561,279.595Zm-1.7-1.691a4.422,4.422,0,0,0,3.9-.149l20.589-11.6c.583-.33.8-.688.8-.912,0-.268-.286-.479-.457-.579l-22.4-13.25a4.409,4.409,0,0,0-3.9.148l-20.589,11.6c-.583.33-.794.688-.8.913,0,.268.284.478.456.578Z" transform="translate(-473.693 -249.72)"/></g><g transform="translate(9.693 5.287)"><path class="b" d="M495.609,271.362l-13.726-8.117c-.711-.421-.614-1.141.217-1.61l12.613-7.107a3.1,3.1,0,0,1,2.791-.087l13.726,8.118c.71.421.613,1.14-.217,1.608L498.4,271.276A3.1,3.1,0,0,1,495.609,271.362Z" transform="translate(-480.752 -253.494)"/><path class="d" d="M493.321,260.11l-7.835,4.416,8.731,5.163a3.1,3.1,0,0,0,2.79-.087l7.835-4.414-8.73-5.163A3.107,3.107,0,0,0,493.321,260.11Z" transform="translate(-479.36 -251.588)"/><path class="h" d="M497.025,272.479a3.145,3.145,0,0,1-1.583-.386l-13.726-8.117a1.48,1.48,0,0,1-.8-1.276,1.773,1.773,0,0,1,1.026-1.466l12.614-7.108a3.718,3.718,0,0,1,3.445-.08l13.728,8.118a1.477,1.477,0,0,1,.8,1.276,1.769,1.769,0,0,1-1.026,1.466l-12.614,7.107A3.847,3.847,0,0,1,497.025,272.479Zm-.59-17.507a2.619,2.619,0,0,0-1.234.3l-12.613,7.108c-.291.164-.358.311-.359.339a.365.365,0,0,0,.154.134l13.727,8.118a2.447,2.447,0,0,0,2.134-.094l12.615-7.107c.291-.164.358-.313.359-.341a.4.4,0,0,0-.156-.134l-13.726-8.117A1.827,1.827,0,0,0,496.435,254.971Z" transform="translate(-480.919 -253.661)"/></g><g transform="translate(9.693 5.312)"><path class="b" d="M481.883,263.264l2.288,1.353,10.542-5.94a3.1,3.1,0,0,1,2.791-.087l11.436,6.764,2.072-1.167c.83-.468.927-1.188.217-1.61L497.5,254.462a3.1,3.1,0,0,0-2.791.086L482.1,261.656C481.269,262.124,481.172,262.845,481.883,263.264Z" transform="translate(-480.752 -253.513)"/><path class="h" d="M509.1,266.278l-11.764-6.956a2.471,2.471,0,0,0-2.137.094l-10.87,6.125L481.717,264a1.482,1.482,0,0,1-.8-1.276,1.775,1.775,0,0,1,1.026-1.466l12.614-7.108a3.715,3.715,0,0,1,3.443-.08l13.729,8.119a1.474,1.474,0,0,1,.8,1.274,1.774,1.774,0,0,1-1.026,1.467ZM496.436,257.8a3.1,3.1,0,0,1,1.568.392l11.112,6.571,1.744-.981c.291-.164.358-.314.359-.342a.416.416,0,0,0-.154-.133l-13.727-8.118a1.827,1.827,0,0,0-.9-.2Z" transform="translate(-480.919 -253.68)"/></g></g><g transform="translate(119.791 13.698)"><path class="c" d="M460.125,257.142a6.716,6.716,0,0,1-3.15-7.451l1.046-4.156a3.523,3.523,0,0,1,5.191-2.182l30.68,17.886,1.764-7.006-30.505-17.644A6.714,6.714,0,0,1,462,229.137l1.046-4.156a3.521,3.521,0,0,1,5.19-2.182l30.81,17.962,1.82-7.227-30.5-17.642a6.715,6.715,0,0,1-3.15-7.451l1.046-4.156a3.523,3.523,0,0,1,5.191-2.182l30.806,17.96,1.764-7.007-30.631-17.717a6.714,6.714,0,0,1-3.15-7.451l1.046-4.156a3.522,3.522,0,0,1,5.19-2.182l30.936,18.036,1.82-7.227-43.974-25.251a6.715,6.715,0,0,1-3.148-7.451l1.046-4.156a3.522,3.522,0,0,1,5.19-2.184l44.278,25.57,11.564-45.93a3.842,3.842,0,0,0-1.808-4.266L402.547,58.486a2,2,0,0,0-2.934,1.242L345.066,276.372a3.844,3.844,0,0,0,1.808,4.267L468.71,350.844a2,2,0,0,0,2.934-1.243L490.5,274.71Z" transform="translate(-344.296 -57.562)"/><path class="b" d="M461.509,261.165a6.712,6.712,0,0,1-3.148-7.45l1.046-4.156a3.523,3.523,0,0,1,5.19-2.184l30.68,17.887,1.764-7.007-30.505-17.644a6.715,6.715,0,0,1-3.15-7.45l1.046-4.156a3.524,3.524,0,0,1,5.191-2.184l30.81,17.962,1.819-7.226-30.5-17.642a6.715,6.715,0,0,1-3.148-7.451l1.046-4.156a3.521,3.521,0,0,1,5.19-2.182l30.806,17.96,1.764-7.007-30.631-17.717a6.715,6.715,0,0,1-3.15-7.451l1.046-4.156a3.524,3.524,0,0,1,5.191-2.184L510.8,203.608l1.819-7.227L468.646,171.13a6.711,6.711,0,0,1-3.15-7.45l1.046-4.156a3.523,3.523,0,0,1,5.19-2.184l44.278,25.57,11.564-45.93a3.842,3.842,0,0,0-1.807-4.267L403.931,62.509A2,2,0,0,0,401,63.753L346.451,280.4a3.842,3.842,0,0,0,1.807,4.267l121.837,70.206a2,2,0,0,0,2.934-1.243l18.855-74.891Z" transform="translate(-343.824 -56.189)"/><path class="a" d="M469.871,351.935a2.652,2.652,0,0,1-1.321-.357L346.713,281.373a4.515,4.515,0,0,1-2.115-4.994L399.145,59.736a2.652,2.652,0,0,1,3.9-1.65l121.836,70.206a4.514,4.514,0,0,1,2.115,4.993l-11.776,46.771-45.028-26a2.869,2.869,0,0,0-4.229,1.776l-1.046,4.156a6.089,6.089,0,0,0,2.842,6.726l44.4,25.5L510,200.756l-31.687-18.475a2.871,2.871,0,0,0-4.228,1.777l-1.046,4.156a6.09,6.09,0,0,0,2.842,6.726L506.945,212.9l-2.1,8.33-31.557-18.4a2.867,2.867,0,0,0-4.225,1.777l-1.049,4.156a6.09,6.09,0,0,0,2.844,6.726l30.929,17.887-2.153,8.551-31.562-18.4a2.867,2.867,0,0,0-4.224,1.777l-1.048,4.156a6.088,6.088,0,0,0,2.842,6.726l30.933,17.89-2.1,8.33-31.431-18.324a2.866,2.866,0,0,0-4.224,1.777l-1.049,4.157a6.088,6.088,0,0,0,2.842,6.724l30.8,17.815-.119.479-18.858,74.892a2.631,2.631,0,0,1-1.536,1.795A2.674,2.674,0,0,1,469.871,351.935Zm-68.153-292.9a1.35,1.35,0,0,0-1.305,1.017L345.868,276.7a3.2,3.2,0,0,0,1.5,3.539L469.2,350.444a1.34,1.34,0,0,0,1.97-.836L489.911,275.2l-29.947-17.321a7.4,7.4,0,0,1-3.455-8.176l1.046-4.157a4.175,4.175,0,0,1,6.153-2.589l29.93,17.448,1.43-5.685-30.077-17.4a7.4,7.4,0,0,1-3.457-8.177l1.048-4.156a4.175,4.175,0,0,1,6.153-2.589l30.059,17.525,1.486-5.9-30.073-17.395a7.4,7.4,0,0,1-3.457-8.177l1.048-4.156a4.177,4.177,0,0,1,6.154-2.589L504,219.226l1.43-5.685-30.2-17.47a7.4,7.4,0,0,1-3.457-8.177l1.048-4.156a4.177,4.177,0,0,1,6.154-2.589l30.185,17.6,1.486-5.9-43.545-25a7.4,7.4,0,0,1-3.458-8.178l1.048-4.156a4.177,4.177,0,0,1,6.154-2.589l43.525,25.134,11.352-45.089a3.2,3.2,0,0,0-1.5-3.54L402.386,59.219A1.339,1.339,0,0,0,401.718,59.039Z" transform="translate(-344.463 -57.729)"/></g><g transform="translate(100.531 13.623)"><path class="b" d="M330.935,167.082a.687.687,0,0,1,.007-1.194l10.067-5.634a23.125,23.125,0,0,0,10.856-14.387l21.841-86.973a.967.967,0,0,1,1.42-.6l92.445,53.247a2.825,2.825,0,0,1,1.327,3.133l-21.633,86.146a23.12,23.12,0,0,1-10.856,14.389l-9.145,5.119a3.983,3.983,0,0,1-3.934-.025Z" transform="translate(-329.937 -57.506)"/><path class="d" d="M444.519,198.045l20.445-81.413L377.784,66.417a.968.968,0,0,0-1.422.6l-21.84,86.973a23.123,23.123,0,0,1-10.856,14.387l-4.264,2.386,81.182,46.761a3.983,3.983,0,0,0,3.934.025l9.145-5.119A23.12,23.12,0,0,0,444.519,198.045Z" transform="translate(-326.93 -54.733)"/><path class="a" d="M425.486,221.65a4.646,4.646,0,0,1-2.317-.617l-92.4-53.219a1.342,1.342,0,0,1,.019-2.331l10.066-5.634a22.581,22.581,0,0,0,10.54-13.976L373.237,58.9a1.62,1.62,0,0,1,2.384-1.009l92.445,53.247A3.493,3.493,0,0,1,469.7,115l-21.633,86.148A23.9,23.9,0,0,1,436.9,215.939l-9.154,5.124A4.638,4.638,0,0,1,425.486,221.65Zm-94.058-54.969,92.4,53.217a3.343,3.343,0,0,0,3.288.023l9.145-5.12a22.575,22.575,0,0,0,10.54-13.974l21.633-86.148a2.178,2.178,0,0,0-1.018-2.406L374.966,59.026a.312.312,0,0,0-.459.195l-21.84,86.971a23.913,23.913,0,0,1-11.164,14.8l-10.074,5.638-.329.622Z" transform="translate(-330.104 -57.673)"/><g transform="translate(42.12 6.471)"><g transform="translate(20.448 11.645)"><rect class="a" width="1.309" height="86.414" transform="translate(0 1.137) rotate(-60.338)"/></g><rect class="a" width="1.309" height="18.248" transform="matrix(0.495, -0.869, 0.869, 0.495, 0, 1.137)"/></g><g transform="translate(10.917 101.78)"><g transform="translate(76.69 43.676)"><rect class="a" width="1.309" height="21.689" transform="matrix(0.495, -0.869, 0.869, 0.495, 0, 1.137)"/></g><g transform="translate(15.857 9.03)"><path class="a" d="M407.752,174.171l-57.687-32.749.647-1.138,9.025,5.139L408.4,173.032Z" transform="translate(-350.064 -140.284)"/></g><rect class="a" width="1.309" height="18.248" transform="translate(0 1.137) rotate(-60.337)"/></g><g transform="translate(15.425 98.696)"><g transform="translate(22.654 12.914)"><rect class="a" width="1.308" height="83.868" transform="translate(0 1.137) rotate(-60.346)"/></g><g transform="translate(15.857 9.031)"><rect class="a" width="1.309" height="4.239" transform="translate(0 1.137) rotate(-60.342)"/></g><rect class="a" width="1.308" height="18.248" transform="translate(0 1.137) rotate(-60.338)"/></g><g transform="translate(20.827 89.151)"><g transform="translate(65.963 37.223)"><rect class="a" width="1.308" height="34.202" transform="matrix(0.503, -0.865, 0.865, 0.503, 0, 1.131)"/></g><g transform="translate(15.856 9.03)"><rect class="a" width="1.309" height="47.156" transform="matrix(0.495, -0.869, 0.869, 0.495, 0, 1.137)"/></g><rect class="a" width="1.309" height="18.247" transform="translate(0 1.137) rotate(-60.339)"/></g></g><g transform="translate(74.23 198.878)"><g transform="translate(8.817 0.778)"><path class="g" d="M326.283,213.285l-8.638-16.331a.046.046,0,0,0-.087.021v21.367a.047.047,0,0,0,.07.04l8.638-5.035A.046.046,0,0,0,326.283,213.285Z" transform="translate(-316.902 -196.17)"/><path class="a" d="M317.8,219.331l-.7-.378-.023-.42L317.3,197l.8-.641.292.476,8.8,16.727-.425.538Zm.582-19.715v17.862l7.221-4.209Z" transform="translate(-317.069 -196.363)"/></g><path class="b" d="M311.052,213.285l8.638-16.331a.047.047,0,0,1,.089.021v21.367a.047.047,0,0,1-.071.04l-8.638-5.035A.046.046,0,0,1,311.052,213.285Z" transform="translate(-310.308 -195.392)"/><path class="d" d="M312.81,213.243l6.177,3.6a.048.048,0,0,0,.071-.04V201.431Z" transform="translate(-309.706 -193.855)"/><path class="a" d="M319.942,219.529l-.376-.192-9.07-5.516.168-.452h0l9.305-17.587.753,1.416-.1.165v21.746Zm-7.85-6.062,7.221,4.208V199.814Z" transform="translate(-310.496 -195.783)"/><g transform="translate(8.817 17.218)"><path class="g" d="M326.2,209.3l-8.554,13.136a.046.046,0,0,1-.086-.025v-8.15a.044.044,0,0,1,.023-.04l8.554-4.986A.047.047,0,0,1,326.2,209.3Z" transform="translate(-316.902 -208.41)"/><path class="a" d="M317.724,223.9l-.237-1.526-.417.245v-8.51l.326-.233,9.025-5.261.77.763-.278.487Zm.655-9.082v5.754l6.04-9.276Z" transform="translate(-317.069 -208.619)"/></g><g transform="translate(0 17.228)"><path class="b" d="M311.118,209.3l8.554,13.136a.046.046,0,0,0,.086-.025v-8.15a.045.045,0,0,0-.024-.04l-8.554-4.986A.046.046,0,0,0,311.118,209.3Z" transform="translate(-310.286 -208.421)"/><path class="a" d="M319.967,223.9l-.636-.9L310.5,209.437l.715-.81.5.248,8.883,5.178.024.417-.264,7.5Zm-6.695-12.6,6.04,9.276v-5.756Z" transform="translate(-310.496 -208.627)"/></g><g transform="translate(9.856 17.839)"><path class="b" d="M317.844,214.586v-1.112l7.549-4.392v1.112Z" transform="translate(-317.844 -209.082)"/></g></g><g transform="translate(317.392 149.946)"><g transform="translate(8.817 0.778)"><path class="g" d="M507.563,176.8l-8.638-16.331a.046.046,0,0,0-.087.023v21.367a.047.047,0,0,0,.07.04l8.638-5.035A.047.047,0,0,0,507.563,176.8Z" transform="translate(-498.182 -159.691)"/><path class="a" d="M499.076,182.852l-.7-.378-.023-.42.227-21.53.8-.64.292.475,8.8,16.727-.424.539Zm.581-19.715V181l7.222-4.209Z" transform="translate(-498.349 -159.884)"/></g><path class="b" d="M492.332,176.8l8.638-16.331a.047.047,0,0,1,.089.023v21.367a.048.048,0,0,1-.071.04l-8.638-5.035A.047.047,0,0,1,492.332,176.8Z" transform="translate(-491.588 -158.913)"/><path class="d" d="M494.089,176.764l6.178,3.6a.047.047,0,0,0,.07-.04V164.951Z" transform="translate(-490.986 -157.376)"/><path class="a" d="M501.22,183.05l-.374-.192-9.07-5.517.168-.451h0l9.3-17.587L502,160.72l-.1.165V182.63Zm-7.848-6.063,7.221,4.208v-17.86Z" transform="translate(-491.776 -159.304)"/><g transform="translate(8.817 17.218)"><path class="g" d="M507.477,172.823l-8.554,13.137a.047.047,0,0,1-.086-.025v-8.15a.048.048,0,0,1,.023-.042l8.554-4.986A.047.047,0,0,1,507.477,172.823Z" transform="translate(-498.182 -171.931)"/><path class="a" d="M499,187.425l-.237-1.528-.417.247v-8.51l.326-.235,9.025-5.259.769.762-.276.487Zm.653-9.082V184.1l6.042-9.276Z" transform="translate(-498.349 -172.14)"/></g><g transform="translate(0 17.227)"><path class="b" d="M492.4,172.823l8.554,13.137a.047.047,0,0,0,.087-.025v-8.15a.049.049,0,0,0-.024-.042l-8.554-4.986A.047.047,0,0,0,492.4,172.823Z" transform="translate(-491.567 -171.941)"/><path class="a" d="M501.247,187.422l-.636-.9-8.836-13.565.714-.81.506.249,8.883,5.178.023.417-.264,7.5Zm-6.7-12.6,6.042,9.276v-5.756Z" transform="translate(-491.776 -172.147)"/></g><g transform="translate(9.855 17.838)"><path class="b" d="M499.123,178.107v-1.112l7.549-4.392v1.112Z" transform="translate(-499.123 -172.603)"/></g></g><g transform="translate(212.721 238.561)"><g transform="translate(7.172 23.937)"><path class="b" d="M472.921,266l-37.585-21.533a5.787,5.787,0,0,0-3.792-.7h0l-.023,0c-.123.02-.244.046-.366.074-6.966,1.276-11.379,6.869-11.379,6.869l3.71,2.958,1.93-.331-3.673,14.277a38.344,38.344,0,0,0,18.067,42.6h0a23.034,23.034,0,0,0,9.432,3l-.685,4.286a.115.115,0,0,0,.149.129c1.7-.539,15.218-5.044,21.432-13.923.016-.023.026-.043.042-.066a23.093,23.093,0,0,0,3.624-7.836l4.452-17.253A11.289,11.289,0,0,0,472.921,266Z" transform="translate(-418.856 -243.046)"/><path class="d" d="M474.548,270.01l-37.585-21.534a5.787,5.787,0,0,0-3.792-.7h0l-.023.005c-.123.019-.244.046-.366.072a19.645,19.645,0,0,0-9.18,4.648l.989-.17-1.053,4.092,1.576,1.257,1.93-.33-3.673,14.277a38.266,38.266,0,0,0,1.607,23.6,38.238,38.238,0,0,0,14.005,13.98h0a23.047,23.047,0,0,0,9.434,3l-.685,4.284a.114.114,0,0,0,.148.129c1.7-.539,15.218-5.044,21.432-13.922.017-.024.027-.043.043-.067a23.108,23.108,0,0,0,3.624-7.836l4.451-17.251a11.238,11.238,0,0,0,.1-5.053A11.251,11.251,0,0,0,474.548,270.01Z" transform="translate(-418.024 -241.68)"/><g transform="translate(0.919 0.526)"><path class="g" d="M425.41,253.248l-1.382-1.1s4.413-5.592,11.379-6.868c.122-.028.243-.055.366-.074l.023-.005v0a5.661,5.661,0,0,1,.868-.064l-1.329-.762a5.787,5.787,0,0,0-3.792-.7h0l-.023,0c-.123.02-.244.047-.366.074-6.966,1.276-11.379,6.869-11.379,6.869l3.71,2.958Z" transform="translate(-419.775 -243.605)"/><path class="i" d="M445.511,310.033c-.554-.263-1.109-.522-1.653-.834h0a38.346,38.346,0,0,1-18.067-42.6l3.673-14.277-1.93.33-2.325-1.852-3.671,14.273a38.345,38.345,0,0,0,18.067,42.6h0A23.062,23.062,0,0,0,445.511,310.033Z" transform="translate(-419.57 -241.149)"/></g><path class="g" d="M463.763,274.5a.115.115,0,0,1-.148-.129l.685-4.286a23.047,23.047,0,0,1-9.434-3h0c-6.942-3.993-19.632-7.973-30.771-12.775l-2.456,9.546a38.346,38.346,0,0,0,18.067,42.6h0a23.047,23.047,0,0,0,9.434,3l-.685,4.286a.114.114,0,0,0,.148.129c1.7-.539,15.218-5.044,21.432-13.923.017-.023.027-.043.043-.066a23.12,23.12,0,0,0,3.624-7.836l4.451-17.253a11.264,11.264,0,0,0-.512-7.049A57.356,57.356,0,0,1,463.763,274.5Z" transform="translate(-418.617 -239.423)"/><path class="a" d="M448.789,318.531l-.385-.259a.766.766,0,0,1-.26-.7l.577-3.61a23.644,23.644,0,0,1-9-3,39.149,39.149,0,0,1-18.377-43.33l3.423-13.3-1.223.209-4.451-3.545.405-.511a21.267,21.267,0,0,1,11.774-7.108c.1-.025.24-.052.378-.076a6.457,6.457,0,0,1,4.248.778L473.481,265.6a11.982,11.982,0,0,1,5.643,13.275l-4.452,17.254a23.7,23.7,0,0,1-3.726,8.054c-6.4,9.147-20.251,13.741-21.809,14.235Zm-22.253-65.838-3.925,15.257a37.831,37.831,0,0,0,17.758,41.872,22.353,22.353,0,0,0,9.166,2.909l.7.064-.656,4.1c3.391-1.172,14.779-5.569,20.26-13.4a22.648,22.648,0,0,0,3.568-7.689l4.451-17.254a10.666,10.666,0,0,0-5.025-11.817h0l-37.585-21.534a5.115,5.115,0,0,0-3.365-.622c-.129.019-.236.042-.343.067A20.138,20.138,0,0,0,420.95,250.8l2.948,2.349Z" transform="translate(-419.09 -243.213)"/></g><g transform="translate(0 28.952)"><path class="b" d="M433.452,313.969h0a23.151,23.151,0,0,0,33.994-14.417L471.9,282.3a11.286,11.286,0,0,0-5.333-12.548l-37.585-21.534a5.848,5.848,0,0,0-8.577,3.646l-5.017,19.5A38.346,38.346,0,0,0,433.452,313.969Z" transform="translate(-413.58 -246.784)"/><path class="d" d="M457.682,299.99l5.017-19.5.015-.055a6.767,6.767,0,0,0-3.191-7.556l-22.615-12.958a5.846,5.846,0,0,0-8.575,3.646l-5.018,19.5a37.985,37.985,0,0,0-.748,3.769,21.213,21.213,0,0,0,10.307,21.282l.118.067h0a23.075,23.075,0,0,0,23.58-.3A37.764,37.764,0,0,1,457.682,299.99Z" transform="translate(-410.805 -242.791)"/><path class="a" d="M445.134,317.894a23.714,23.714,0,0,1-11.844-3.191h0a39.148,39.148,0,0,1-18.377-43.329l5.019-19.507a6.5,6.5,0,0,1,9.536-4.05l37.585,21.534a11.978,11.978,0,0,1,5.642,13.276l-4.451,17.255a23.89,23.89,0,0,1-23.11,18.012ZM426.24,248.261a5.211,5.211,0,0,0-5.041,3.929L416.182,271.7a37.828,37.828,0,0,0,17.76,41.869h0a22.5,22.5,0,0,0,33.035-14.008l4.449-17.255a10.665,10.665,0,0,0-5.023-11.817l-37.586-21.533A5.16,5.16,0,0,0,426.24,248.261Z" transform="translate(-413.743 -246.951)"/></g><g transform="translate(17.607 60.735)"><path class="g" d="M442.121,274.52l-5.312-3.26a.843.843,0,0,0-1.261.52l-2.143,8.885c-.042,0-.081-.013-.123-.013-3.272,0-5.925,3.01-5.925,6.726s2.653,6.724,5.925,6.724,5.926-3.01,5.926-6.724a7.008,7.008,0,0,0-2.53-5.5l1.3-5.384a.292.292,0,0,1,.437-.181l1.893,1.162a1.734,1.734,0,1,0,1.814-2.955Z" transform="translate(-426.702 -270.479)"/><path class="a" d="M433.45,294.926c-3.628,0-6.581-3.31-6.581-7.38,0-3.921,2.74-7.139,6.188-7.367l2.023-8.384a1.5,1.5,0,0,1,.884-1.033,1.475,1.475,0,0,1,1.353.106l5.312,3.261a2.387,2.387,0,1,1-2.5,4.07l-1.466-.9-1.088,4.51a7.761,7.761,0,0,1,2.452,5.737C440.029,291.615,437.078,294.926,433.45,294.926Zm-.044-13.453c-2.864,0-5.229,2.724-5.229,6.072s2.365,6.071,5.273,6.071,5.27-2.724,5.27-6.071a6.385,6.385,0,0,0-2.282-4.989l-.326-.26,1.4-5.788a.947.947,0,0,1,1.419-.585l1.89,1.16a1.077,1.077,0,0,0,.99.072,1.063,1.063,0,0,0,.629-.767,1.075,1.075,0,0,0-.49-1.143h0l-5.313-3.261a.189.189,0,0,0-.169-.013.186.186,0,0,0-.111.13l-2.27,9.4Z" transform="translate(-426.869 -270.646)"/><g transform="translate(0.001 0.002)"><path class="b" d="M435.549,271.781l-2.143,8.885c-.043,0-.082-.013-.123-.013-3.269,0-5.919,3-5.925,6.714a7.184,7.184,0,0,0,1.7,4.7c.076.082.156.16.236.236.107.111.221.212.335.314a5.323,5.323,0,0,0,2.946,1.139,6.153,6.153,0,0,1-1.969-4.964c0-3.716,2.653-6.726,5.926-6.726.042,0,.08.012.122.013l.043-.178-.019-.019,0-.019,0,0,1.3-5.384a.294.294,0,0,1,.439-.181l1.893,1.162a1.734,1.734,0,0,0,1.814-2.955l-5.285-3.242-.028.005A.842.842,0,0,0,435.549,271.781Z" transform="translate(-426.704 -270.482)"/><path class="a" d="M434.619,294.715l-1.926-.142a6.022,6.022,0,0,1-3.3-1.278c-.157-.138-.282-.251-.4-.372-.07-.067-.158-.154-.244-.244a7.838,7.838,0,0,1-1.875-5.144c0-3.915,2.744-7.128,6.185-7.356l2.023-8.384a1.5,1.5,0,0,1,1.987-1.05l.039-.007.241.126,5.285,3.243a2.387,2.387,0,1,1-2.5,4.068l-1.467-.9-1.061,4.4.026.012-.292,1.229-.68-.031c-2.864,0-5.229,2.724-5.229,6.072a5.5,5.5,0,0,0,1.75,4.476Zm-1.214-13.242c-2.858,0-5.222,2.72-5.227,6.062a6.525,6.525,0,0,0,1.54,4.268c.052.054.122.122.193.19.114.117.215.207.318.3a4.453,4.453,0,0,0,.754.484,7.693,7.693,0,0,1-.864-3.819c0-3.91,2.724-7.12,6.157-7.364l1.23-5.105a.959.959,0,0,1,.563-.655.937.937,0,0,1,.854.068l1.893,1.163a1.078,1.078,0,0,0,.99.071,1.062,1.062,0,0,0,.628-.765,1.081,1.081,0,0,0-.488-1.148l-5.314-3.237a.189.189,0,0,0-.169-.013.186.186,0,0,0-.111.13l-2.268,9.4Z" transform="translate(-426.87 -270.648)"/></g></g><g transform="translate(20.869)"><path class="b" d="M462.741,273.935h0a4.15,4.15,0,0,1-3.017-5.033l3.062-12.224a19.337,19.337,0,0,0-8.036-20.728c-2.184-1.45-5.972-2.153-8.408-1.179a8.393,8.393,0,0,0-5.073,5.8l-3.306,13.2a4.149,4.149,0,0,1-5.031,3.017h0a4.149,4.149,0,0,1-3.017-5.033l3.163-12.626A17.419,17.419,0,0,1,442.7,227.3a16.623,16.623,0,0,1,15.1.789,27.652,27.652,0,0,1,13.03,30.6l-3.061,12.224A4.149,4.149,0,0,1,462.741,273.935Z" transform="translate(-429.134 -225.2)"/><path class="d" d="M459.016,229.95a16.624,16.624,0,0,0-15.1-.789,17.422,17.422,0,0,0-9.626,11.828l-3.163,12.626a3.507,3.507,0,0,0,6.956-.478l3.306-13.2a8.393,8.393,0,0,1,5.073-5.8c2.436-.974,6.224-.271,8.409,1.18a19.277,19.277,0,0,1,7.473,9.611A19.25,19.25,0,0,1,464,258.537l-3.061,12.225a1.782,1.782,0,0,0,1.925,2.538,4.148,4.148,0,0,0,5.031-3.017l3.062-12.224a23.92,23.92,0,0,0-11.94-28.11Z" transform="translate(-428.715 -224.565)"/><g transform="translate(0.818 5.231)"><path class="g" d="M451.939,232.024c-2.185-1.451-5.973-2.154-8.409-1.18a8.393,8.393,0,0,0-5.073,5.8l-3.307,13.2a4.148,4.148,0,0,1-5.031,3.017c-.074-.019-.137-.054-.208-.075a4.137,4.137,0,0,0,7.85-.562l3.306-13.2a8.393,8.393,0,0,1,5.073-5.8c2.436-.974,6.224-.271,8.408,1.18.327.216.638.449.948.684A19.092,19.092,0,0,0,451.939,232.024Z" transform="translate(-429.911 -228.883)"/><path class="g" d="M453.439,229.267a27.658,27.658,0,0,1,7,25.884l-3.062,12.224a4.148,4.148,0,0,1-5.031,3.017c-.074-.019-.137-.054-.208-.075a4.137,4.137,0,0,0,7.85-.562l3.061-12.224A27.663,27.663,0,0,0,453.439,229.267Z" transform="translate(-422.325 -229.267)"/></g><path class="a" d="M463.914,274.881a4.763,4.763,0,0,1-1.164-.144h0a4.811,4.811,0,0,1-3.493-5.826l3.062-12.224a18.639,18.639,0,0,0-7.761-20.023c-1.922-1.277-5.518-2.031-7.8-1.12a7.74,7.74,0,0,0-4.681,5.355l-3.306,13.2a4.8,4.8,0,0,1-9.317-2.334l3.162-12.628a18.146,18.146,0,0,1,10-12.265,17.234,17.234,0,0,1,15.69.818,28.313,28.313,0,0,1,13.34,31.329l-3.061,12.224A4.814,4.814,0,0,1,463.914,274.881Zm-.848-1.414a3.487,3.487,0,0,0,4.239-2.541l3.061-12.223a27,27,0,0,0-12.721-29.877,15.955,15.955,0,0,0-14.509-.757,16.83,16.83,0,0,0-9.255,11.387l-3.162,12.628a3.493,3.493,0,1,0,6.777,1.7l3.306-13.2a9.03,9.03,0,0,1,5.466-6.251c2.758-1.1,6.823-.211,9.013,1.242A19.955,19.955,0,0,1,463.589,257l-3.062,12.225a3.5,3.5,0,0,0,2.539,4.237Z" transform="translate(-429.301 -225.367)"/></g><g transform="translate(53.634 79.517)"><path class="b" d="M453.728,289.26l.4-1.2a43.471,43.471,0,0,0,6.612-3.408l-.507,1.36A35.114,35.114,0,0,1,453.728,289.26Z" transform="translate(-453.728 -284.648)"/></g></g><g transform="translate(33.925 77.787)"><g transform="translate(0.21 0.246)"><g transform="translate(107.88 131.208)"><path class="b" d="M361.994,209.933l9.85,7.131a1.152,1.152,0,0,0,1.717-1.425l-5.168-10.979a1.153,1.153,0,0,0-1.775-.4l-4.68,3.851A1.152,1.152,0,0,0,361.994,209.933Z" transform="translate(-360.864 -203.342)"/><path class="j" d="M371.043,216.07a1.109,1.109,0,0,0,.679.216l-3.475-7.383a1.151,1.151,0,0,0-1.773-.4l-2.752,2.264Z" transform="translate(-360.112 -201.894)"/><path class="a" d="M372.688,218.11a1.812,1.812,0,0,1-1.061-.349l-9.85-7.129a1.806,1.806,0,0,1-.087-2.858l4.68-3.85a1.8,1.8,0,0,1,2.779.625l5.171,10.979a1.816,1.816,0,0,1-1.632,2.582Zm-5.175-13.29a.479.479,0,0,0-.311.114l-4.681,3.85a.5.5,0,0,0,.024.787l9.85,7.129a.5.5,0,0,0,.742-.614l-5.17-10.979a.494.494,0,0,0-.341-.274A.507.507,0,0,0,367.513,204.819Z" transform="translate(-361.03 -203.509)"/></g><path class="b" d="M393.382,241.483h0a5.2,5.2,0,0,1-7.314-.711L282.106,114.409a4.455,4.455,0,0,1,.609-6.271l1.146-.942a4.455,4.455,0,0,1,6.271.609L394.093,234.168A5.2,5.2,0,0,1,393.382,241.483Z" transform="translate(-280.439 -105.525)"/><path class="k" d="M393.335,236.951,289.374,110.588a4.457,4.457,0,0,0-6.272-.61l-1.144.942a4.384,4.384,0,0,0-.4.4,4.43,4.43,0,0,0,.994,3.119L386.511,240.8c1.824,2.216,2.754-.274,4.97-2.1a5.105,5.105,0,0,0,.647-.651C392.289,236.7,394.271,238.089,393.335,236.951Z" transform="translate(-280.283 -104.576)"/><path class="a" d="M390.252,243.486a5.838,5.838,0,0,1-4.523-2.133L281.767,114.993a5.116,5.116,0,0,1,.7-7.194l1.146-.942a5.108,5.108,0,0,1,7.192.7L394.764,233.921a5.857,5.857,0,0,1-.8,8.235h0A5.822,5.822,0,0,1,390.252,243.486ZM286.85,107a3.773,3.773,0,0,0-2.408.865l-1.146.943a3.806,3.806,0,0,0-.519,5.351l103.96,126.362a4.551,4.551,0,0,0,6.394.622h0a4.549,4.549,0,0,0,.622-6.394L289.792,108.389a3.769,3.769,0,0,0-2.566-1.37C287.1,107.008,286.975,107,286.85,107Z" transform="translate(-280.605 -105.692)"/><g transform="translate(101.611 123.959)"><path class="b" d="M364.048,205.729a5.2,5.2,0,0,1-7.314-.711l3.658,4.447a5.2,5.2,0,0,0,8.027-6.6l-3.658-4.447A5.2,5.2,0,0,1,364.048,205.729Z" transform="translate(-356.228 -197.999)"/><path class="c" d="M364.87,205.349a13.02,13.02,0,0,1-2.946,1.929c-.653.538-1.887-.272-2.66-.1l.482.586a5.182,5.182,0,0,0,6.693,1.125,5.879,5.879,0,0,0-.445-5.38A5.865,5.865,0,0,1,364.87,205.349Z" transform="translate(-355.365 -196.26)"/><path class="a" d="M364.545,212.121c-.192,0-.385-.009-.578-.028a5.8,5.8,0,0,1-3.95-2.106l-3.653-4.439-.007-.008,1.01-.832a4.549,4.549,0,0,0,6.4.622h0a4.543,4.543,0,0,0,.624-6.392l0,0,1.01-.83,3.658,4.447a5.853,5.853,0,0,1-4.507,9.569Zm-4.833-4.563,1.315,1.6a4.505,4.505,0,0,0,3.069,1.635,4.571,4.571,0,0,0,3.325-1.013,4.544,4.544,0,0,0,.621-6.4l-1.313-1.6c0,.2-.009.4-.028.6a5.856,5.856,0,0,1-6.392,5.257A5.876,5.876,0,0,1,359.712,207.558Z" transform="translate(-356.357 -198.105)"/></g></g><path class="b" d="M283.68,107.009l-1.144.943a4.441,4.441,0,0,0-1.223,5.243c.233.378.42.668.514.8.872,1.186,3.453.769,5.763-.932,2.2-1.619,3.343-3.807,2.695-5.035l-.331-.4A4.457,4.457,0,0,0,283.68,107.009Z" transform="translate(-280.286 -105.343)"/><path class="b" d="M284.967,109.563l-.978.8a3.789,3.789,0,0,0-1.044,4.473c.2.322.358.57.439.679.745,1.011,2.946.656,4.917-.8,1.878-1.382,2.852-3.247,2.3-4.3l-.282-.345A3.8,3.8,0,0,0,284.967,109.563Z" transform="translate(-279.709 -104.42)"/><path class="k" d="M282.324,110.185a4.374,4.374,0,0,0-1.343,1.926c.038.106.066.215.111.318.233.378.421.668.515.8.872,1.186,3.451.769,5.762-.931a8.421,8.421,0,0,0,2.313-2.5,4.45,4.45,0,0,0-6.213-.551Z" transform="translate(-280.267 -104.579)"/><path class="a" d="M283.647,115.475a2.591,2.591,0,0,1-2.185-.93c-.1-.135-.3-.441-.545-.842a5.131,5.131,0,0,1,1.364-6.091l1.146-.942a5.117,5.117,0,0,1,7.194.7l.4.514c.825,1.564-.388,4.032-2.884,5.87A8.022,8.022,0,0,1,283.647,115.475Zm3.025-8.658a3.787,3.787,0,0,0-2.413.864l-1.144.943a3.8,3.8,0,0,0-1.041,4.471c.178.28.354.555.443.676.563.763,2.755.467,4.848-1.073,1.995-1.466,2.9-3.306,2.529-4.153l-.283-.343A3.8,3.8,0,0,0,286.672,106.817Z" transform="translate(-280.448 -105.509)"/><g transform="translate(11.421 9.55)"><rect class="a" width="1.308" height="111.43" transform="matrix(0.772, -0.635, 0.635, 0.772, 0, 0.831)"/><g transform="translate(72.533 88.175)"><rect class="a" width="1.308" height="16.94" transform="matrix(0.772, -0.635, 0.635, 0.772, 0, 0.831)"/></g></g><path class="g" d="M364.648,207.933l6.327,5.8a2.625,2.625,0,0,0,2.562.567h0l-.217,1.517-1.5-.093-10.235-7.233Z" transform="translate(-252.751 -70.545)"/><path class="g" d="M361.831,204.648l3.662,4.445-2.573-.085-2.664-1.117-2.578-3.4,2.414.378Z" transform="translate(-254.085 -71.721)"/><path class="g" d="M285.388,112.068,387.717,236.2l-3.18-.009-.972-.152L281.848,112.4l2.453.419Z" transform="translate(-279.971 -103.27)"/><path class="g" d="M285.684,113.883s-4.648-4.728-2.023-7.132l-1.877,1.712-.8,1.855v2.319l1.164,2H284.6Z" transform="translate(-280.267 -105.084)"/><g transform="translate(1.99 8.754)"><path class="b" d="M282.951,112.991a7.836,7.836,0,0,1-1.019-.063l.091-.648a6.036,6.036,0,0,0,2.715-.245l.27.6A5.2,5.2,0,0,1,282.951,112.991Z" transform="translate(-281.932 -112.035)"/><g transform="translate(101.919 123.978)"><path class="b" d="M359.336,205.406a9.746,9.746,0,0,1-1.422-.1l.1-.647a7.88,7.88,0,0,0,3.294-.2l.221.617A6.681,6.681,0,0,1,359.336,205.406Z" transform="translate(-357.914 -204.462)"/></g><g transform="translate(107.058 128.313)"><path class="b" d="M362.032,208.705c-.169,0-.272-.007-.287-.008l.054-.652a5.567,5.567,0,0,0,2.186-.351l.24.608A6.15,6.15,0,0,1,362.032,208.705Z" transform="translate(-361.745 -207.694)"/></g></g></g><g transform="translate(144.871 65.54)"><g transform="translate(0.935 2.436)"><g transform="translate(0 8.141)"><path class="b" d="M410,138.94l-.612-.773a1.449,1.449,0,0,1-.072-1.6l1.1-1.789L404.912,136l-.608-.659a1.465,1.465,0,0,1-.254-1.5l2.024-5.046-8.685,3.49a1.408,1.408,0,0,1-1.788-.683h0a1.41,1.41,0,0,1,.545-1.836l2.986-1.771c.054-5.284-1.531-8.933-3.653-11.45-4.422,7.144-10.8,15.092-17.664,16.045-3.954.551-7.581-1.19-10.807-5.16-4.842-5.964-3.045-10.508-1.543-12.687,4.038-5.852,14.819-8.359,23.541-5.474a19.34,19.34,0,0,1,5.9,3.1c1.785-3.143,3.112-5.882,3.8-7.357a1.306,1.306,0,0,1,1.7-.645h0a1.306,1.306,0,0,1,.677,1.746c-.747,1.618-2.205,4.637-4.194,8.078,3.147,3.388,4.849,8.015,4.864,13.517l6.72-2.7.7.647a1.476,1.476,0,0,1,.343,1.588l-2.223,5.54,6.114-1.355.61.762a1.452,1.452,0,0,1,.081,1.608l-1.107,1.793,4.778-1.058c1.718-1.072,5.336-3.887,5.3-6.549-.02-1.246-.881-2.441-2.565-3.563a1.307,1.307,0,0,1-.425-1.713h0a1.325,1.325,0,0,1,1.9-.452c2.433,1.631,3.679,3.54,3.71,5.689.071,4.79-6.058,8.535-6.758,8.946l-.245.145-.216.023Zm-28.7-28.25c-5.734,0-11.288,2.062-13.686,5.54-1.9,2.759-1.414,6.062,1.419,9.549,2.646,3.257,5.4,4.634,8.414,4.219,6.055-.84,11.972-8.519,16.106-15.338a16.9,16.9,0,0,0-5.376-2.9A22.037,22.037,0,0,0,381.307,110.689Z" transform="translate(-363.857 -104.263)"/></g><g transform="translate(36.397)"><path class="b" d="M391.883,104.23h0a1.282,1.282,0,0,1-.782-1.347,12.553,12.553,0,0,0-.1-3.21,1.3,1.3,0,0,1,1-1.443l.012,0a1.305,1.305,0,0,1,1.586,1.089,14.774,14.774,0,0,1,.1,3.879A1.313,1.313,0,0,1,391.883,104.23Z" transform="translate(-390.991 -98.194)"/></g><g transform="translate(45.693 41.595)"><path class="b" d="M398.275,137.129l0,0a1.3,1.3,0,0,1,.091-1.866c2.861-2.508,8.864-7.221,12.127-5.793a3.225,3.225,0,0,1,1.828,2.353,1.3,1.3,0,0,1-1.281,1.575h0a1.351,1.351,0,0,1-1.278-1.033.725.725,0,0,0-.319-.5c-1.312-.577-5.686,2.178-9.335,5.351A1.313,1.313,0,0,1,398.275,137.129Z" transform="translate(-397.921 -129.203)"/></g></g><g transform="translate(0 8.142)"><path class="a" d="M409.306,137.124l-.61-.771a1.45,1.45,0,0,1-.072-1.6l1.1-1.791-5.512,1.223-.608-.659a1.467,1.467,0,0,1-.254-1.5l2.024-5.045-8.685,3.49a1.408,1.408,0,0,1-1.788-.684h0a1.408,1.408,0,0,1,.545-1.835l2.986-1.771c.052-5.285-1.531-8.933-3.653-11.45-4.422,7.144-10.8,15.092-17.664,16.044-3.954.553-7.581-1.188-10.807-5.16-4.842-5.964-3.045-10.508-1.543-12.685,4.037-5.852,14.819-8.361,23.541-5.475a19.346,19.346,0,0,1,5.894,3.1c1.785-3.143,3.113-5.882,3.8-7.356a1.3,1.3,0,0,1,1.7-.645h0a1.3,1.3,0,0,1,.677,1.745c-.747,1.618-2.205,4.638-4.194,8.079,3.147,3.387,4.848,8.013,4.864,13.517l6.72-2.7.7.648a1.474,1.474,0,0,1,.343,1.587l-2.223,5.541,6.114-1.356.61.763a1.452,1.452,0,0,1,.081,1.607L412.3,133.78l4.778-1.06c1.718-1.072,5.336-3.887,5.3-6.549-.02-1.246-.881-2.441-2.565-3.563a1.305,1.305,0,0,1-.425-1.712h0a1.324,1.324,0,0,1,1.9-.452c2.433,1.63,3.679,3.539,3.71,5.689.071,4.789-6.058,8.534-6.758,8.946l-.245.145-.216.023Zm-28.7-28.249c-5.734,0-11.288,2.062-13.686,5.54-1.9,2.759-1.414,6.062,1.419,9.549,2.647,3.257,5.4,4.634,8.414,4.217,6.055-.84,11.972-8.519,16.106-15.337a16.915,16.915,0,0,0-5.376-2.905A22.036,22.036,0,0,0,380.61,108.875Z" transform="translate(-363.16 -102.447)"/></g><g transform="translate(36.397)"><path class="a" d="M391.186,102.414h0a1.28,1.28,0,0,1-.782-1.345,12.551,12.551,0,0,0-.1-3.21,1.3,1.3,0,0,1,1-1.445l.012,0A1.305,1.305,0,0,1,392.9,97.5a14.832,14.832,0,0,1,.1,3.879A1.311,1.311,0,0,1,391.186,102.414Z" transform="translate(-390.294 -96.378)"/></g><g transform="translate(45.693 41.596)"><path class="a" d="M397.578,135.314l0,0a1.3,1.3,0,0,1,.091-1.867c2.861-2.507,8.864-7.221,12.127-5.792a3.225,3.225,0,0,1,1.828,2.353,1.3,1.3,0,0,1-1.281,1.573h0a1.35,1.35,0,0,1-1.278-1.032.726.726,0,0,0-.319-.5c-1.312-.577-5.686,2.177-9.335,5.349A1.313,1.313,0,0,1,397.578,135.314Z" transform="translate(-397.224 -127.388)"/></g></g><g transform="translate(168.184 218.538)"><g transform="translate(0 6.94)"><path class="a" d="M420.077,245.47l-.6-.766a1.429,1.429,0,0,1-.067-1.579l.707-1.146-4.38.972-.593-.647a1.443,1.443,0,0,1-.254-1.469l1.567-3.9-6.83,2.744a1.411,1.411,0,0,1-1.789-.684h0a1.41,1.41,0,0,1,.545-1.836l2.3-1.36a14.252,14.252,0,0,0-2.913-9.348c-3.8,6.078-9.222,12.759-15.084,13.572-3.45.479-6.608-1.03-9.407-4.477-4.217-5.192-2.641-9.161-1.327-11.068,3.494-5.062,12.8-7.237,20.33-4.75a16.9,16.9,0,0,1,4.922,2.549c1.26-2.208,2.3-4.28,3.052-5.9a1.3,1.3,0,0,1,1.7-.649h0a1.3,1.3,0,0,1,.673,1.744c-.651,1.4-1.842,3.843-3.442,6.621a16.725,16.725,0,0,1,4.109,11.3l5.6-2.249.691.637a1.451,1.451,0,0,1,.339,1.567l-1.765,4.4,5-1.107.6.758a1.424,1.424,0,0,1,.064,1.592l-.7,1.137,3.607-.8c1.459-.922,4.447-3.264,4.41-5.418-.016-.962-.673-1.894-1.957-2.782a1.314,1.314,0,0,1-.416-1.706h0a1.319,1.319,0,0,1,1.9-.452c2.024,1.4,3.062,3.045,3.093,4.895.071,4.174-5.254,7.457-5.862,7.817l-.232.14-.212.028ZM395.629,221.31c-4.834,0-9.506,1.73-11.522,4.653-1.989,2.881-.443,5.9,1.2,7.929,2.213,2.726,4.5,3.893,7.014,3.534,4.832-.668,9.838-6.883,13.529-12.874a14.3,14.3,0,0,0-4.394-2.339A18.685,18.685,0,0,0,395.629,221.31Z" transform="translate(-380.54 -215.614)"/></g><g transform="translate(31.127)"><path class="a" d="M404.619,215.576h0a1.278,1.278,0,0,1-.79-1.294,10.562,10.562,0,0,0-.072-2.37,1.3,1.3,0,0,1,1-1.437h.008a1.309,1.309,0,0,1,1.59,1.117,12.865,12.865,0,0,1,.075,2.952A1.3,1.3,0,0,1,404.619,215.576Z" transform="translate(-403.746 -210.44)"/></g><g transform="translate(39.186 35.745)"><path class="a" d="M410.1,244.048h0a1.3,1.3,0,0,1,.1-1.873c2.527-2.193,7.591-6.087,10.413-4.85a2.878,2.878,0,0,1,1.619,1.938,1.264,1.264,0,0,1-1.23,1.591h-.085a1.328,1.328,0,0,1-1.221-.928c-.044-.121-.093-.186-.133-.2-.931-.4-4.417,1.643-7.657,4.439A1.3,1.3,0,0,1,410.1,244.048Z" transform="translate(-409.754 -237.088)"/></g></g></g></g></svg>