<svg xmlns="http://www.w3.org/2000/svg" width="596.721" height="444.686" viewBox="0 0 596.721 444.686"><defs><style>.a{fill:#ebebeb;}.b{fill:#f0f0f0;}.c{fill:#f5f5f5;}.d{fill:#e6e6e6;}.e{fill:#e0e0e0;}.f{fill:#fff;}.g{fill:#ffb573;}.h{fill:#263238;}.i{fill:#48b971;}.j,.n,.p{opacity:0.2;}.k{fill:#ed893e;}.l,.m,.n{fill:#48ba71;}.m{opacity:0.19;}.o{opacity:0.3;}</style></defs><g transform="translate(-70 -527)"><g transform="translate(70 527)"><g transform="translate(0 0)"><rect class="a" width="596.721" height="0.298" transform="translate(0 390.787)"/><path class="a" d="M275.472,392.514H45.019a6.82,6.82,0,0,1-6.812-6.812V61.764a6.819,6.819,0,0,1,6.812-6.811H275.472a6.819,6.819,0,0,1,6.811,6.811V385.7A6.82,6.82,0,0,1,275.472,392.514ZM45.019,55.251a6.52,6.52,0,0,0-6.514,6.513V385.7a6.52,6.52,0,0,0,6.514,6.514H275.472a6.52,6.52,0,0,0,6.513-6.514V61.764a6.52,6.52,0,0,0-6.513-6.513Z" transform="translate(7.391 -54.953)"/><path class="a" d="M491.767,392.514H261.316a6.819,6.819,0,0,1-6.811-6.812V61.764a6.818,6.818,0,0,1,6.811-6.811H491.767a6.82,6.82,0,0,1,6.813,6.811V385.7A6.821,6.821,0,0,1,491.767,392.514ZM261.316,55.251a6.52,6.52,0,0,0-6.513,6.513V385.7a6.52,6.52,0,0,0,6.513,6.514H491.767a6.522,6.522,0,0,0,6.515-6.514V61.764a6.521,6.521,0,0,0-6.515-6.513Z" transform="translate(49.232 -54.953)"/><g transform="translate(62.607 398.914)"><rect class="a" width="37.674" height="0.298" transform="translate(436.65 3.239)"/><rect class="a" width="39.87" height="0.298" transform="translate(297.724)"/><rect class="a" width="74.51" height="0.298" transform="translate(410.695 14.321)"/><rect class="a" width="22.955" height="0.298" transform="translate(0 12.316)"/><rect class="a" width="36.152" height="0.298" transform="translate(33.581 12.316)"/><rect class="a" width="65.109" height="0.298" transform="translate(163.643 7.277)"/></g><g transform="translate(63.832 48.522)"><g transform="translate(331.297 67.878)"><g transform="translate(0 67.018)"><rect class="b" width="207.369" height="51.985" transform="translate(51.985 0) rotate(90)"/><rect class="c" width="45.736" height="46.277" transform="translate(49.131 6.055) rotate(90)"/><path class="d" d="M364.766,213.207H344.281a4.742,4.742,0,0,0,4.742,4.743h11A4.742,4.742,0,0,0,364.766,213.207Z" transform="translate(-328.531 -207.758)"/><rect class="c" width="45.736" height="46.277" transform="translate(49.131 55.896) rotate(90)"/><rect class="c" width="45.736" height="46.277" transform="translate(49.131 105.737) rotate(90)"/><rect class="c" width="45.736" height="46.277" transform="translate(49.131 155.578) rotate(90)"/><path class="d" d="M364.766,254.97H344.281a4.742,4.742,0,0,0,4.742,4.742h11A4.742,4.742,0,0,0,364.766,254.97Z" transform="translate(-328.531 -199.68)"/><path class="d" d="M364.766,296.732H344.281a4.742,4.742,0,0,0,4.742,4.743h11A4.742,4.742,0,0,0,364.766,296.732Z" transform="translate(-328.531 -191.601)"/><path class="d" d="M364.766,338.495H344.281a4.742,4.742,0,0,0,4.742,4.742h11A4.742,4.742,0,0,0,364.766,338.495Z" transform="translate(-328.531 -183.522)"/><rect class="c" width="207.369" height="25.965" transform="translate(77.949 0) rotate(90)"/><g transform="translate(56.678)"><rect class="b" width="207.369" height="51.984" transform="translate(51.984 0) rotate(90)"/><rect class="c" width="45.736" height="46.278" transform="translate(49.131 6.055) rotate(90)"/><path class="d" d="M412.257,213.207H391.772a4.742,4.742,0,0,0,4.742,4.743h11A4.742,4.742,0,0,0,412.257,213.207Z" transform="translate(-376.022 -207.758)"/><rect class="c" width="45.736" height="46.278" transform="translate(49.131 55.896) rotate(90)"/><rect class="c" width="45.736" height="46.278" transform="translate(49.131 105.737) rotate(90)"/><rect class="c" width="45.736" height="46.278" transform="translate(49.131 155.578) rotate(90)"/><path class="d" d="M412.257,254.97H391.772a4.742,4.742,0,0,0,4.742,4.742h11A4.742,4.742,0,0,0,412.257,254.97Z" transform="translate(-376.022 -199.68)"/><path class="d" d="M412.257,296.732H391.772a4.742,4.742,0,0,0,4.742,4.743h11A4.742,4.742,0,0,0,412.257,296.732Z" transform="translate(-376.022 -191.601)"/><path class="d" d="M412.257,338.495H391.772a4.742,4.742,0,0,0,4.742,4.742h11A4.742,4.742,0,0,0,412.257,338.495Z" transform="translate(-376.022 -183.522)"/><rect class="c" width="207.369" height="25.965" transform="translate(77.949 0) rotate(90)"/></g></g><g transform="translate(32.669)"><rect class="e" width="15.183" height="41.409" transform="translate(54.286 25.609)"/><path class="d" d="M364,219.5H421.9l8.622-67.018H372.619Z" transform="translate(-357.386 -152.486)"/><path class="b" d="M358.458,219.5H421.5l8.622-67.018H367.08Z" transform="translate(-358.458 -152.486)"/><path class="f" d="M415.931,213.367l7.264-56.455H370.716l-7.263,56.455Z" transform="translate(-357.492 -151.63)"/><ellipse class="d" cx="15.33" cy="13.48" rx="15.33" ry="13.48" transform="translate(15.429 34.162) rotate(-43.159)"/></g></g><g transform="translate(147.867)"><rect class="d" width="161.949" height="342.264" transform="translate(165.548 342.264) rotate(180)"/><rect class="c" width="161.949" height="342.264" transform="translate(161.949 342.264) rotate(180)"/><rect class="f" width="327.752" height="149.029" transform="translate(155.489 7.256) rotate(90)"/><rect class="d" width="327.752" height="2.721" transform="translate(9.181 7.256) rotate(90)"/><rect class="c" width="156.605" height="9.742" transform="translate(159.277 113.558) rotate(180)"/></g><g transform="translate(0 73.331)"><g transform="translate(0 113.31)"><rect class="b" width="22.572" height="146.351" transform="translate(119.982 146.351) rotate(180)"/><rect class="b" width="111.314" height="9.273" transform="translate(115.648 155.624) rotate(180)"/><rect class="c" width="97.41" height="146.351"/><rect class="b" width="79.662" height="47.998" transform="translate(8.874 18.014)"/><rect class="b" width="79.662" height="47.998" transform="translate(8.874 80.338)"/><rect class="c" width="22.289" height="6.582" rx="2.255" transform="translate(25.023 30.868) rotate(90)"/><rect class="c" width="22.289" height="6.582" rx="2.255" transform="translate(25.023 93.193) rotate(90)"/></g><g transform="translate(30.889)"><path class="e" d="M141.61,185.16c-2.529,1.269-9.388-.094-7.1,4.547a39.127,39.127,0,0,0,4.688,6.81c2.554,3.151,2.073,6.566-.944,7.807a3.716,3.716,0,0,0-1.667,1.16c-1.389,1.991,1.892,4.662,3.5,6.656,1.556,1.927,2.26,3.957,1.069,5.442-1.314,1.639-4.053,1.036-6.227,1.531-5.232,1.19.148,8.4-.407,12.111-.381,2.537-2.438,3.245-5.234,3.6-2.281.292-5.324.5-5.452,2.836-.11,2.022,2.525,4.317,3.216,6.443a6.642,6.642,0,0,1-.507,5.6,6.125,6.125,0,0,1-4.1,2.686c-2.591.55-6.51-.021-6.7,2.9-.084,1.306.826,2.461.193,3.664a4.18,4.18,0,0,1-3.041,1.787,22.038,22.038,0,0,1-7.467-.132c-3.042-.557-7.532-3.238-5.882-5.822a3.542,3.542,0,0,1,2.352-1.35c.73-.149,2.855.081,3.128-.412s-.459-2.394-.491-3.086a14.446,14.446,0,0,1,.887-5.577,17.023,17.023,0,0,1,3.925-6.219c.72-.729,1.873-1.265,2.019-2.327a5.192,5.192,0,0,0-1.261-3.276c-1.165-1.637-2.967-3.2-3.62-4.955-1.025-2.754,1.46-3.628,3.758-4.255,2.08-.566,4.817-1.294,4.11-3.818-.51-1.824-2.808-3.315-3.5-5.094-.924-2.386,1.327-2.479,2.943-3.331,2.094-1.106,2.624-3.079,1.863-5.582-1.253-4.125-8.815-9.946-4.943-12.628.982-.681,1.894-.911,2.485-1.933.633-1.094.724-2.457,1.547-3.45,1.3-1.577,4-1.84,5.405-3.3,2.887-3-3.351-8.322,2.343-9.588a6.788,6.788,0,0,0,3.326-1.376c.522-.486.943-2.838,1.531-3,2.611-.728,7.324,4.342,8.8,5.906C137.962,178.042,144.63,183.644,141.61,185.16Z" transform="translate(-75.533 -154.52)"/><path class="c" d="M100.628,257.619c1.553-2.87,8.334-5.736,3.832-9.068a37.811,37.811,0,0,0-7.781-4.061c-3.94-1.64-5.343-5.437-3.346-8.582a4.833,4.833,0,0,0,.851-2.223c.16-2.9-4.165-3.6-6.653-4.64-2.4-1.006-4.113-2.648-3.857-4.909.283-2.493,3.023-3.579,4.676-5.436,3.98-4.468-4.629-8.514-6.122-12.655-1.023-2.834.414-4.837,2.689-6.941,1.856-1.716,4.432-3.817,3.293-6.289-.986-2.14-4.539-2.852-6.287-4.6a8.5,8.5,0,0,1-2.553-6.054,7.858,7.858,0,0,1,2.185-5.3c1.991-2.174,5.755-4.023,4.355-7.132-.625-1.389-2.047-2.007-2.133-3.632a5.287,5.287,0,0,1,1.727-3.719,22.3,22.3,0,0,1,6.661-4.5c2.981-1.32,8.378-1.364,8.305,2.307a4.456,4.456,0,0,1-1.352,2.844c-.564.606-2.562,1.69-2.54,2.365s1.686,2.165,2.085,2.855a18.981,18.981,0,0,1,2.2,6.262,23.6,23.6,0,0,1-.135,8.806c-.245,1.193-.975,2.458-.536,3.638a5.561,5.561,0,0,0,2.865,2.572c1.9.952,4.332,1.436,5.847,2.825,2.38,2.184.655,4.622-1.039,6.692-1.532,1.871-3.558,4.317-1.583,6.464,1.426,1.55,4.252,1.651,5.811,3.043,2.092,1.869.155,3.363-.814,5.239-1.257,2.435-.667,4.783,1.344,6.874,3.314,3.444,13.1,4.709,11.122,9.86-.5,1.307-1.184,2.108-1.159,3.524.027,1.513.677,2.966.483,4.493-.307,2.424-2.542,4.367-3,6.741-.942,4.864,7.411,6.44,3.065,11.274a8.166,8.166,0,0,0-2.2,3.474c-.2.821.687,3.492.255,4.027-1.913,2.367-8.785.1-10.927-.58C107.656,262.642,98.775,261.047,100.628,257.619Z" transform="translate(-79.368 -157.055)"/><g transform="translate(3.881 94.083)"><path class="b" d="M82.62,235.889s.821,19.226,32.3,19.226,32.3-19.226,32.3-19.226Z" transform="translate(-82.62 -235.889)"/></g></g></g></g></g><g transform="translate(66.965 417.659)"><ellipse class="c" cx="231.395" cy="13.514" rx="231.395" ry="13.514"/></g><g transform="translate(313.698 67.281)"><path class="g" d="M315.453,411.639l-9.578-.15-2.2-22.221,9.578.15Z" transform="translate(-254.955 -57.563)"/><path class="g" d="M357.6,411.638h-9.579l-7.464-22.184h9.58Z" transform="translate(-247.821 -57.527)"/><path class="h" d="M348.608,407.113h11.679a.836.836,0,0,1,.816.654L363,416.282a1.408,1.408,0,0,1-1.4,1.7c-3.757-.064-6.5-.285-11.233-.285-2.911,0-11.692.3-15.713.3-3.932,0-4.546-3.975-2.9-4.336,7.381-1.615,12.943-3.842,15.306-5.966A2.323,2.323,0,0,1,348.608,407.113Z" transform="translate(-249.689 -54.111)"/><path class="h" d="M309.358,406.959l10.461.163a.837.837,0,0,1,.806.667l1.758,8.544a1.393,1.393,0,0,1-1.4,1.682c-3.772-.123-9.221-.43-13.963-.5-5.546-.087-10.34.14-16.843.038-3.932-.062-4.961-4.054-3.309-4.388,7.519-1.522,13.64-1.6,20.177-5.492A4.423,4.423,0,0,1,309.358,406.959Z" transform="translate(-258.353 -54.141)"/><path class="g" d="M319.319,169.8a212.909,212.909,0,0,1-10.1,19.666c-1.853,3.189-3.79,6.354-5.885,9.458a105.049,105.049,0,0,1-6.78,9.181l-.95,1.121-.476.559c-.166.192-.271.329-.605.684a11.581,11.581,0,0,1-5.084,3.315,9.707,9.707,0,0,1-3.759.4,10.365,10.365,0,0,1-3.237-.841,13.685,13.685,0,0,1-3.975-2.738,25.617,25.617,0,0,1-4.169-5.484,55.864,55.864,0,0,1-2.715-5.329,105.936,105.936,0,0,1-6.57-21.42l6.868-2.136c1.468,3.128,2.985,6.36,4.578,9.447s3.206,6.158,4.96,8.981a44.4,44.4,0,0,0,2.692,3.963,15.6,15.6,0,0,0,2.632,2.815c.354.272.633.335.485.222a1.554,1.554,0,0,0-.636-.206,2.967,2.967,0,0,0-1.11.076c-.72.229-.829.4-.751.247l1.334-1.832a169.484,169.484,0,0,0,10.564-17.53c3.288-6.1,6.486-12.468,9.475-18.638Z" transform="translate(-262.433 -101.181)"/><g transform="translate(26.939 55.108)"><path class="i" d="M319.358,165.013c2.583,8.787-15.6,32.743-15.6,32.743l-18.334-11.8s5.388-12.223,12.7-21.543C305.641,154.846,316.524,155.37,319.358,165.013Z" transform="translate(-285.424 -157.504)"/><path class="j" d="M319.358,165.013c2.583,8.787-15.6,32.743-15.6,32.743l-18.334-11.8s5.388-12.223,12.7-21.543C305.641,154.846,316.524,155.37,319.358,165.013Z" transform="translate(-285.424 -157.504)"/></g><path class="j" d="M306.473,172.469c-3.771,1.611-9.321,10.693-12.209,17.424l7.781,5a146.552,146.552,0,0,0,11.7-18.331C311.282,173.866,308.466,171.622,306.473,172.469Z" transform="translate(-256.775 -99.536)"/><path class="g" d="M272.124,178.86l2.355-10.8-10.9-.084s-2.912,8.113,2.945,11.9Z" transform="translate(-262.851 -100.371)"/><path class="g" d="M273.119,159.555l-8.738,3.149-.924,6.9,10.9.084Z" transform="translate(-262.734 -101.999)"/><path class="j" d="M303.676,389.273l1.133,11.454,9.582.15-1.133-11.454Z" transform="translate(-254.954 -57.562)"/><path class="j" d="M350.138,389.459h-9.583l3.852,11.435h9.583Z" transform="translate(-247.82 -57.526)"/><g transform="translate(41.431 53.67)"><path class="i" d="M359.711,161.36c-10.318,36.388-8.237,75.013-9.169,82.827-7.492-.544-35.715-2.648-51.1-3.8-6.7-54.525,6.712-82.537,6.712-82.537s3.286-.639,7.754-1.1c1.4-.143,2.913-.27,4.486-.352.87-.053,1.753-.081,2.648-.1a189.928,189.928,0,0,1,21.724,1.62c1.362.169,2.748.374,4.089.592,1.245.212,2.466.439,3.615.668C355.686,160.227,359.711,161.36,359.711,161.36Z" transform="translate(-297.567 -156.299)"/><path class="j" d="M359.711,161.36c-10.318,36.388-8.237,75.013-9.169,82.827-7.492-.544-35.715-2.648-51.1-3.8-6.7-54.525,6.712-82.537,6.712-82.537s3.286-.639,7.754-1.1c1.4-.143,2.913-.27,4.486-.352.87-.053,1.753-.081,2.648-.1a189.928,189.928,0,0,1,21.724,1.62c1.362.169,2.748.374,4.089.592,1.245.212,2.466.439,3.615.668C355.686,160.227,359.711,161.36,359.711,161.36Z" transform="translate(-297.567 -156.299)"/></g><path class="j" d="M340.555,173.62c-.919,3.521.131,19.584,3.807,23.547.5-5.144,1.17-10.514,2.053-16Z" transform="translate(-247.881 -99.278)"/><path class="g" d="M338.96,137.032c-1.89,6.887-4.21,19.59.332,24.617-4.079,3.493-9.37,7.486-17.69,7.161s-6.446-5.927-4.03-8.775c7.932-1.282,8.161-7.078,7.208-12.61Z" transform="translate(-252.664 -106.356)"/><path class="h" d="M337.6,156s-3.434,5.666-17.256,9.124c2.289,2.115,3.4,7.12,3.4,7.12s18.034-4.351,17.488-14.45A12.047,12.047,0,0,0,337.6,156Z" transform="translate(-251.731 -102.687)"/><path class="h" d="M316.686,171.016s1.818-4.372,4.916-5.856c-1.44-1.5-3.614-6.008-2.312-9.323a11.221,11.221,0,0,0-3.207.2S310.62,162.927,316.686,171.016Z" transform="translate(-252.991 -102.722)"/><path class="h" d="M320.148,168.958c-.165.938-.708,1.627-1.213,1.537s-.78-.92-.616-1.858.708-1.625,1.213-1.537S320.313,168.022,320.148,168.958Z" transform="translate(-252.131 -100.541)"/><path class="h" d="M319.462,173.453c-.081.949-.561,1.683-1.072,1.639s-.859-.849-.778-1.8.562-1.682,1.072-1.637S319.543,172.5,319.462,173.453Z" transform="translate(-252.261 -99.658)"/><path class="j" d="M331.676,140.586l-8.393,6.145a22.433,22.433,0,0,1,.383,3.906c3.009-.209,7.342-3.173,7.89-6.267A10.5,10.5,0,0,0,331.676,140.586Z" transform="translate(-251.162 -105.669)"/><path class="h" d="M320.217,115.209c-7.445-.161-8.944,17.829-4.119,20.974S334.156,115.509,320.217,115.209Z" transform="translate(-253.09 -110.578)"/><path class="g" d="M341.006,130.684c-1.285,9.421-1.56,15-6.7,19.5-7.733,6.772-19.093,1.568-20.647-8.046-1.4-8.654.937-22.6,10.481-25.682A12.967,12.967,0,0,1,341.006,130.684Z" transform="translate(-253.095 -110.464)"/><path class="h" d="M336.257,139.606c-4.8,2.517-10.283-23.551,2.412-22.191C354.557,119.117,345.842,134.576,336.257,139.606Z" transform="translate(-249.697 -110.161)"/><path class="h" d="M317.571,118.532c0,5.832,18.938,11.632,25.436,9.643s8.119-7.1,4.641-10.741C341.747,111.26,317.571,107.091,317.571,118.532Z" transform="translate(-252.266 -111.328)"/><path class="h" d="M318.419,118.02a11.178,11.178,0,0,0,2.731,5.162c-1.691-.1-3.377-2.5-3.914-3.9S318.419,118.02,318.419,118.02Z" transform="translate(-252.352 -110.035)"/><path class="g" d="M340.977,138.354a9.037,9.037,0,0,1-5.912,3.561c-3.136.45-4.294-2.455-3.079-5.2,1.093-2.472,4.043-5.683,7.027-4.873C341.952,132.64,342.7,135.982,340.977,138.354Z" transform="translate(-249.57 -107.385)"/><path class="h" d="M304.389,429.894l16.219.247s-5.41-64.07-3.949-93.886c.445-9.069,2.268-21.755,4.663-35.351,3.025-17.131,4.481-23.963,8.395-45.613,2.791-15.438,5.271-26.029,5.271-26.029l-33.592-2.5s-14.245,77.218-13.918,106.453C287.813,363.615,304.389,429.894,304.389,429.894Z" transform="translate(-258.089 -88.998)"/><path class="j" d="M318.215,246c-6.039,15.037-6.158,50.268-3.377,60.185.477-2.936.991-5.943,1.528-9,3.031-17.138,4.487-23.964,8.4-45.613.072-.43.155-.847.227-1.265A23.266,23.266,0,0,0,318.215,246Z" transform="translate(-253.134 -85.277)"/><path class="h" d="M314.325,227.893s2.967,80.78,5.218,108.758c2.466,30.638,25.431,93.282,25.431,93.282H362.52s-11.706-57.337-15.3-87.09c-4.091-33.891.074-112.5.074-112.5Z" transform="translate(-252.894 -88.78)"/><path class="i" d="M338.641,398.568H359.3V392.4l-23.1-.4Z" transform="translate(-248.662 -57.036)"/><path class="i" d="M300.288,398.33l19.327.3.1-6.244-21.6-.667Z" transform="translate(-256.03 -57.089)"/><path class="h" d="M324.617,129.83c-.057.77-.512,1.364-1.016,1.327s-.865-.692-.808-1.463.512-1.365,1.016-1.327S324.674,129.059,324.617,129.83Z" transform="translate(-251.257 -108.033)"/><path class="h" d="M317.32,129.287c-.057.77-.513,1.364-1.017,1.327s-.865-.693-.808-1.463.512-1.365,1.016-1.327S317.377,128.516,317.32,129.287Z" transform="translate(-252.669 -108.138)"/><path class="k" d="M320,129.543s-2.083,4.315-4.171,6.317c1.267,1.374,3.629.964,3.629.964Z" transform="translate(-252.604 -107.805)"/><path class="h" d="M321.655,137.99a6.359,6.359,0,0,0,4.54-2.2.226.226,0,0,0-.042-.317.229.229,0,0,0-.319.043,6.134,6.134,0,0,1-5.154,2.016.227.227,0,0,0-.033.452A7.531,7.531,0,0,0,321.655,137.99Z" transform="translate(-251.712 -106.667)"/><path class="h" d="M327.337,127.863a.439.439,0,0,0,.218-.072.452.452,0,0,0,.135-.627,4.5,4.5,0,0,0-3.545-2.142.454.454,0,0,0-.006.907h0a3.6,3.6,0,0,1,2.789,1.727A.454.454,0,0,0,327.337,127.863Z" transform="translate(-251.083 -108.679)"/><path class="h" d="M314.143,126.789a.451.451,0,0,0,.365-.224,3.6,3.6,0,0,1,2.706-1.856.454.454,0,0,0-.049-.906,4.5,4.5,0,0,0-3.441,2.306.454.454,0,0,0,.165.621A.443.443,0,0,0,314.143,126.789Z" transform="translate(-253.023 -108.915)"/><g transform="translate(44.262 349.765)"><path class="i" d="M343.458,408.908a11.318,11.318,0,0,0,2.507-.344.227.227,0,0,0,.067-.413c-.349-.218-3.44-2.116-4.5-1.572a.719.719,0,0,0-.389.641,1.364,1.364,0,0,0,.469,1.2A2.9,2.9,0,0,0,343.458,408.908Zm1.85-.662c-1.627.326-2.877.266-3.4-.173a.925.925,0,0,1-.309-.823c.012-.177.082-.235.144-.266C342.292,406.7,344.051,407.519,345.307,408.246Z" transform="translate(-291.969 -403.998)"/><path class="i" d="M345.6,408.935a.225.225,0,0,0,.227-.245c-.01-.117-.239-2.881-1.351-3.79a1.247,1.247,0,0,0-.967-.292h0a.741.741,0,0,0-.722.6c-.2,1.068,1.714,3.166,2.706,3.7A.215.215,0,0,0,345.6,408.935Zm-1.933-3.882a.8.8,0,0,1,.522.2c.714.584,1.019,2.195,1.131,3-.986-.748-2.207-2.333-2.086-2.965.011-.058.036-.193.331-.229h0A.753.753,0,0,1,343.663,405.053Z" transform="translate(-291.654 -404.362)"/><path class="i" d="M305.719,408.4a.227.227,0,0,0,.037-.415c-.432-.232-4.252-2.244-5.425-1.614a.721.721,0,0,0-.384.6h0a1.268,1.268,0,0,0,.408,1.11c1.036.946,3.787.612,5.335.329Zm-5.091-1.665c.727-.239,2.8.591,4.31,1.339-2.121.317-3.695.2-4.277-.331a.825.825,0,0,1-.261-.733.268.268,0,0,1,.147-.24A.517.517,0,0,1,300.628,406.739Z" transform="translate(-299.939 -404.042)"/><path class="i" d="M305.332,408.762a.19.19,0,0,0,.058-.029.225.225,0,0,0,.1-.2c-.008-.11-.227-2.694-1.429-3.713a1.66,1.66,0,0,0-1.252-.409h0c-.625.054-.81.368-.856.621-.192,1.081,2.066,3.188,3.214,3.725A.226.226,0,0,0,305.332,408.762Zm-2.72-3.86a1.057,1.057,0,0,1,.233-.043h0a1.2,1.2,0,0,1,.92.3,5.311,5.311,0,0,1,1.217,2.973c-1.168-.728-2.7-2.38-2.584-3.028C302.406,405.067,302.423,404.964,302.612,404.9Zm.214-.27-.006,0Z" transform="translate(-299.552 -404.4)"/></g><g transform="translate(89.164 57.893)"><path class="g" d="M353.817,165.54c3.338,6.712,6.338,13.414,9.093,20.335,1.4,3.443,2.689,6.937,3.954,10.461.619,1.771,1.217,3.545,1.79,5.348l.432,1.346.461,1.547c.333,1.06.532,2.122.777,3.181,1.572,8.513.644,16.579-1.093,24.135a91.16,91.16,0,0,1-3.36,11.036q-1.026,2.676-2.18,5.287c-.771,1.764-1.566,3.422-2.536,5.212l-6.595-2.87c.921-3.257,1.85-6.769,2.5-10.2.718-3.437,1.269-6.887,1.645-10.3a69.533,69.533,0,0,0,.409-10.091,39.863,39.863,0,0,0-1.318-9.354c-.228-.705-.4-1.437-.678-2.1-.138-.356-.226-.641-.4-1.056l-.508-1.228c-.664-1.637-1.394-3.269-2.087-4.909-1.4-3.286-2.9-6.545-4.369-9.828l-9.006-19.611Z" transform="translate(-336.946 -158.735)"/><path class="l" d="M351.971,160.677c8.741,2.738,17.335,32.373,17.335,32.373L349.085,201.9s-6.542-14.321-10.3-25.544C334.683,164.131,341.384,157.362,351.971,160.677Z" transform="translate(-337.563 -159.838)"/><path class="j" d="M351.971,160.677c8.741,2.738,17.335,32.373,17.335,32.373L349.085,201.9s-6.542-14.321-10.3-25.544C334.683,164.131,341.384,157.362,351.971,160.677Z" transform="translate(-337.563 -159.838)"/><path class="g" d="M353.537,235.387l-4.718,8.509,11.107,2.894s3.363-8.255-.6-10.871Z" transform="translate(-335.386 -145.223)"/><path class="g" d="M348.126,252.179l10.208.847,1.727-7.614-11.108-2.894Z" transform="translate(-335.52 -143.844)"/></g></g></g><g transform="translate(167.664 550.44)"><g transform="translate(0 0)"><path class="m" d="M337.676,330.2H85.168l17.8-252.5H355.481Z" transform="translate(-81.189 -73.992)"/><path class="n" d="M138.732,330.2H102.406L192.881,77.7h36.325Z" transform="translate(-77.854 -73.992)"/><path class="n" d="M219.729,330.2h-80.1L230.1,77.7h80.1Z" transform="translate(-70.655 -73.992)"/><path class="l" d="M101.853,121.422l-7.4-.522,3.266-46.307h46.316V82.01h-39.4Z" transform="translate(-79.393 -74.593)"/><path class="l" d="M128.673,299.965H81.834l3.3-46.816,7.4.522-2.742,38.878h38.881Z" transform="translate(-81.834 -40.054)"/><path class="l" d="M319.291,121.422l-7.4-.522,2.742-38.891H275.754V74.593h46.839Z" transform="translate(-44.322 -74.593)"/><path class="l" d="M307.151,299.965H260.835v-7.416h39.4l2.777-39.4,7.4.522Z" transform="translate(-47.208 -40.054)"/><g class="o" transform="translate(65.459 47.838)"><path class="l" d="M205.387,285.808a1.3,1.3,0,0,1-.629-.161c-.074-.039-1.828-1-4.777-2.808-1.241-.754-2.7-1.671-4.333-2.715-5.189-3.373-10.192-6.927-14.879-10.569-1.134-.886-2.272-1.79-3.431-2.728-4.321-3.534-8.309-7.089-11.854-10.572-.913-.9-1.809-1.808-2.707-2.738a121.619,121.619,0,0,1-9.158-10.614c-.695-.9-1.363-1.813-2.018-2.739a81.7,81.7,0,0,1-6.482-10.668c-.458-.894-.9-1.83-1.32-2.771A57.873,57.873,0,0,1,140.137,216c-.209-.843-.4-1.759-.574-2.783-.125-.674-.229-1.375-.322-2.075-.36-2.728-.678-5.515-.975-8.519-.094-.893-.18-1.794-.265-2.695-.311-3.534-.566-7.081-.758-10.562l-.019-.356c-.047-.794-.092-1.581-.129-2.368-.163-3.434-.283-6.978-.352-10.535l-.033-2.71c-.041-3.758-.033-7.3.021-10.538.011-.911.032-1.816.054-2.71.087-3.9.211-7.44.37-10.536l.01-.2c.041-.863.08-1.7.128-2.518.214-3.845.463-7.49.722-10.535.086-1.048.159-1.927.235-2.716.277-3.005.481-4.682.481-4.682a1.311,1.311,0,0,1,1.2-1.152c.221-.017,22.24-1.708,45.692-5.832,4.755-.835,9.378-1.741,13.741-2.691,6.433-1.4,12.325-2.93,17.513-4.547a1.308,1.308,0,0,1,.8,0c4.954,1.616,10.626,3.145,16.86,4.543,4.227.95,8.72,1.856,13.357,2.691,22.866,4.123,44.644,5.814,44.863,5.831a1.313,1.313,0,0,1,1.213,1.335s-.033,1.677-.181,4.689c-.036.806-.088,1.713-.148,2.715-.171,3.064-.436,6.708-.765,10.533-.062.759-.135,1.534-.208,2.331l-.037.39c-.283,3.122-.658,6.667-1.115,10.532-.109.914-.214,1.809-.329,2.714-.4,3.252-.9,6.8-1.466,10.53l-.413,2.7c-.575,3.586-1.195,7.131-1.84,10.545-.144.769-.3,1.538-.451,2.315l-.081.408c-.678,3.462-1.433,7.008-2.242,10.538-.212.911-.426,1.816-.65,2.722-.718,3-1.431,5.782-2.173,8.507-.191.7-.394,1.4-.616,2.081-.319,1.016-.637,1.93-.969,2.783a66.921,66.921,0,0,1-5.157,10.682c-.532.915-1.108,1.847-1.7,2.762a99.439,99.439,0,0,1-7.96,10.632c-.782.921-1.577,1.834-2.4,2.737a149.407,149.407,0,0,1-10.628,10.586c-1.025.927-2.049,1.834-3.083,2.731-4.036,3.48-8.519,7.031-13.325,10.555-1.295.94-2.561,1.845-3.813,2.727-5.2,3.641-10.7,7.192-16.347,10.554-1.784,1.048-3.371,1.963-4.724,2.72-3.195,1.8-5.079,2.76-5.159,2.8A1.311,1.311,0,0,1,205.387,285.808Zm-64.171-155.47c-.085.783-.208,1.983-.353,3.55-.075.783-.146,1.651-.224,2.606-.265,3.105-.513,6.721-.723,10.546-.048.813-.087,1.64-.128,2.494l-.011.208c-.155,3.074-.28,6.595-.368,10.466-.021.886-.042,1.782-.053,2.688-.055,3.216-.061,6.737-.02,10.469l.033,2.7c.067,3.521.185,7.04.348,10.451.036.779.081,1.556.127,2.34l.021.359c.19,3.456.442,6.974.748,10.459.086.9.169,1.788.263,2.679.295,2.982.612,5.742.968,8.441.086.655.183,1.312.3,1.956.168.977.346,1.834.544,2.636a55.254,55.254,0,0,0,3.5,10.264c.4.9.823,1.794,1.264,2.653a79.3,79.3,0,0,0,6.28,10.336c.637.9,1.284,1.784,1.961,2.66a118.918,118.918,0,0,0,8.966,10.39c.881.914,1.763,1.807,2.657,2.689,3.49,3.426,7.416,6.928,11.672,10.407q1.713,1.386,3.388,2.695c4.626,3.595,9.567,7.106,14.686,10.433,1.605,1.026,3.047,1.932,4.279,2.68,1.9,1.165,3.314,1.981,4.062,2.406.8-.42,2.343-1.244,4.442-2.427,1.343-.752,2.914-1.658,4.675-2.691,5.587-3.326,11.03-6.841,16.172-10.443q1.86-1.309,3.775-2.7c4.746-3.48,9.173-6.988,13.154-10.421q1.527-1.321,3.039-2.69a147.085,147.085,0,0,0,10.447-10.406c.809-.884,1.584-1.773,2.346-2.672a96.887,96.887,0,0,0,7.757-10.359c.576-.884,1.128-1.777,1.643-2.663a64.361,64.361,0,0,0,4.966-10.286c.317-.818.617-1.678.923-2.648.212-.658.4-1.316.584-1.975.735-2.7,1.44-5.456,2.155-8.435.223-.9.434-1.8.644-2.695.8-3.5,1.549-7.015,2.223-10.452l.082-.413c.152-.767.3-1.528.446-2.289.641-3.392,1.255-6.912,1.827-10.465l.409-2.691c.564-3.71,1.054-7.231,1.457-10.464.116-.9.221-1.787.323-2.663.457-3.873.831-7.392,1.111-10.494l.036-.393c.074-.79.146-1.557.206-2.308v-.006c.327-3.8.588-7.416.759-10.459.06-.993.112-1.887.148-2.686.072-1.462.116-2.6.142-3.386-4.969-.424-24.016-2.18-43.879-5.763-4.674-.841-9.2-1.754-13.468-2.713-6.146-1.38-11.763-2.886-16.7-4.48-5.162,1.594-10.992,3.1-17.334,4.483-4.4.957-9.057,1.87-13.846,2.712C165.465,128.188,145.95,129.943,141.216,130.338Z" transform="translate(-136.683 -114.678)"/><g transform="translate(54.463 35.18)"><ellipse class="l" cx="16.223" cy="15.119" rx="16.223" ry="15.119" transform="matrix(0.719, -0.695, 0.695, 0.719, 0, 22.536)"/><path class="l" d="M206.777,167.288h-7.657l-10.811,50.437h22.167Z" transform="translate(-181.16 -139.681)"/></g><g class="p" transform="translate(1.34 5.89)"><path class="l" d="M239.69,122.314H177.882c4.582-.8,9.222-1.705,13.794-2.7h34.6C230.71,120.608,235.223,121.509,239.69,122.314Z" transform="translate(-130.054 -119.613)"/><path class="l" d="M291.9,133.376h-153c.081-1,.155-1.9.233-2.7H292.047C292.011,131.48,291.959,132.379,291.9,133.376Z" transform="translate(-137.595 -117.473)"/><path class="l" d="M291.277,141.735c-.073.88-.158,1.779-.243,2.712H138.176c.045-.932.087-1.832.138-2.712Z" transform="translate(-137.734 -115.334)"/><path class="l" d="M289.989,152.8c-.105.889-.21,1.79-.328,2.7H137.823c.011-.911.032-1.812.053-2.7Z" transform="translate(-137.803 -113.192)"/><path class="l" d="M288.2,163.866c-.137.9-.274,1.79-.413,2.7H137.838c-.011-.911-.021-1.8-.032-2.7Z" transform="translate(-137.806 -111.053)"/><path class="l" d="M285.9,174.927c-.169.9-.35,1.8-.531,2.711H138.275c-.053-.911-.106-1.812-.148-2.711Z" transform="translate(-137.744 -108.913)"/><path class="l" d="M282.986,186c-.211.9-.424,1.8-.646,2.7H139.147c-.1-.9-.18-1.8-.265-2.7Z" transform="translate(-137.598 -106.772)"/><path class="l" d="M279.326,197.058c-.286.911-.594,1.812-.944,2.712H140.74c-.222-.9-.4-1.8-.561-2.712Z" transform="translate(-137.347 -104.632)"/><path class="l" d="M272.649,208.119c-.53.911-1.093,1.821-1.674,2.712H144.943c-.456-.89-.89-1.8-1.292-2.712Z" transform="translate(-136.675 -102.492)"/><path class="l" d="M261.871,219.188c-.775.912-1.559,1.812-2.373,2.7H152.071c-.689-.89-1.346-1.79-1.992-2.7Z" transform="translate(-135.432 -100.351)"/><path class="l" d="M247.167,230.249c-1.018.923-2.036,1.822-3.062,2.713H162.019c-.9-.89-1.791-1.79-2.68-2.713Z" transform="translate(-133.641 -98.211)"/><path class="l" d="M228.522,241.31c-1.284.933-2.544,1.833-3.793,2.713H174.851c-1.124-.88-2.258-1.779-3.411-2.713Z" transform="translate(-131.3 -96.072)"/><path class="l" d="M205.52,252.38c-1.769,1.038-3.349,1.949-4.694,2.7h-9.832c-1.24-.753-2.69-1.664-4.312-2.7Z" transform="translate(-128.351 -93.93)"/></g></g></g></g></g></svg>