<svg xmlns="http://www.w3.org/2000/svg" width="27.466" height="27.466" viewBox="0 0 27.466 27.466"><defs><style>.a{fill:#fff;}</style></defs><path class="a" d="M6.2,147.618l-.974,3.635-3.559.075a14.01,14.01,0,0,1-.1-13.06h0l3.168.581L6.121,142a8.347,8.347,0,0,0,.078,5.62Z" transform="translate(0 -130.97)"/><path class="a" d="M275.062,208.176a13.98,13.98,0,0,1-4.986,13.519h0l-3.99-.2-.565-3.526a8.335,8.335,0,0,0,3.586-4.256h-7.478v-5.533h13.434Z" transform="translate(-247.84 -197.309)"/><path class="a" d="M51.583,317.4h0a13.99,13.99,0,0,1-21.074-4.279l4.532-3.71a8.318,8.318,0,0,0,11.986,4.259Z" transform="translate(-28.842 -293.011)"/><path class="a" d="M49.973,3.22,45.442,6.929a8.317,8.317,0,0,0-12.261,4.355l-4.556-3.73h0A13.989,13.989,0,0,1,49.973,3.22Z" transform="translate(-27.06 0)"/></svg>