<svg xmlns="http://www.w3.org/2000/svg" width="168.01" height="33.853" viewBox="0 0 168.01 33.853"><defs><style>.a{fill:#4c4c4d;}.b{fill:#48b971;}</style></defs><g transform="translate(0 0)"><path class="a" d="M3173.7,657.786,3167,641h3.047l5.172,13.645L3180.458,641h2.94l-6.776,16.786Z" transform="translate(-3124.674 -632.433)"/><path class="a" d="M4376.01,941.506a3.265,3.265,0,0,0-3.541-3.3,3.624,3.624,0,0,0-3.742,3.3Zm2.406,2.018h-9.636a3.871,3.871,0,0,0,3.955,3.181,4.944,4.944,0,0,0,3.6-1.484l1.457,1.564a6.925,6.925,0,0,1-5.266,2.152,6.469,6.469,0,1,1-.081-12.937C4376.932,936,4378.75,938.913,4378.416,943.524Z" transform="translate(-4307.649 -923.491)"/><path class="a" d="M5512.753,938.633a4.651,4.651,0,0,1,4.41-2.633v2.633a3.871,3.871,0,0,0-4.41,3.542v6.669H5510v-12.75h2.753Z" transform="translate(-5436.36 -923.491)"/><path class="a" d="M6199.24,563.069v-12.75h2.727v12.75Zm2.968-16.4a1.605,1.605,0,1,1-1.6-1.671A1.589,1.589,0,0,1,6202.208,546.671Z" transform="translate(-6116.152 -537.716)"/><path class="a" d="M6652.109,550.319v12.75h-2.727v-12.75Zm-2.967-3.649a1.6,1.6,0,1,1,1.6,1.657A1.592,1.592,0,0,1,6649.142,546.671Zm-7.458,2.873a4.181,4.181,0,0,1,4.383-4.384,4.934,4.934,0,0,1,2.379.575l-.094,2.406a5.49,5.49,0,0,0-2.205-.561,1.543,1.543,0,0,0-1.738,1.711v1.483h3.342v2.058h-3.342v10.237h-2.726V552.832H6640v-2.058h1.684Z" transform="translate(-6551.258 -537.716)"/><path class="a" d="M7772.01,941.506a3.265,3.265,0,0,0-3.542-3.3,3.623,3.623,0,0,0-3.742,3.3Zm2.406,2.018h-9.637a3.873,3.873,0,0,0,3.957,3.181,4.944,4.944,0,0,0,3.6-1.484l1.456,1.564a6.922,6.922,0,0,1-5.265,2.152,6.469,6.469,0,1,1-.081-12.937C7772.932,936,7774.75,938.913,7774.416,943.524Z" transform="translate(-7658.263 -923.491)"/><path class="a" d="M8827.585,577.467a3.88,3.88,0,0,0-3.9-4.2,3.93,3.93,0,0,0-3.929,4.2,3.922,3.922,0,1,0,7.832,0Zm2.767,6.322h-2.767V581.61a4.942,4.942,0,0,1-4.477,2.3c-3.663,0-6.108-2.66-6.108-6.549,0-3.836,2.46-6.442,6.055-6.442a5.035,5.035,0,0,1,4.53,2.326V566h2.767Z" transform="translate(-8699.162 -558.436)"/><path class="a" d="M10063.021,1677.564a1.513,1.513,0,1,1-3.021,0,1.512,1.512,0,1,1,3.021,0Z" transform="translate(-9925.551 -1653.601)"/><path class="a" d="M10533.2,940.9v7.939h-2.753V941.68a2.851,2.851,0,0,0-3.074-3.1,3.58,3.58,0,0,0-3.623,3.475v6.789H10521v-12.75h2.752v2.446c.909-1.777,2.54-2.539,4.706-2.539C10531.424,936,10533.2,937.871,10533.2,940.9Z" transform="translate(-10380.39 -923.491)"/><path class="a" d="M11629.984,942.086a3.641,3.641,0,0,0-3.676-3.916,3.931,3.931,0,1,0,3.676,3.916Zm2.727,5.466c0,3.662-2.607,5.961-6.617,5.961a9.222,9.222,0,0,1-5.293-1.671l1.178-1.991a6.446,6.446,0,0,0,3.994,1.39c2.422,0,4.012-1.417,4.012-3.622v-1.6a4.674,4.674,0,0,1-4.225,2.152c-3.447,0-5.76-2.486-5.76-6.161,0-3.6,2.285-6.041,5.666-6.054a4.765,4.765,0,0,1,4.318,2.152v-2.058h2.727Z" transform="translate(-11464.701 -923.442)"/><path class="b" d="M32.57,10.438l-7.458,4.33a8.292,8.292,0,0,1,.281,2.165,8.484,8.484,0,1,1-2.914-6.388h.027a4.23,4.23,0,0,0,5.52-6.388h0c-.04-.04-.08-.067-.12-.107l-.281-.241a16.842,16.842,0,1,0,4.945,6.629Z" transform="translate(0 0)"/><path class="b" d="M829.818,986l2.045,5.653L833.921,986h1.751l-2.98,7.5H830.94L828,986Z" transform="translate(-816.934 -972.822)"/><path class="b" d="M1443.555,1111v1.55c-1.176-.107-1.911.535-1.911,1.51v2.766H1440v-5.76h1.644v1.042A2.118,2.118,0,0,1,1443.555,1111Z" transform="translate(-1420.755 -1096.152)"/></g></svg>