<svg xmlns="http://www.w3.org/2000/svg" width="98.282" height="91.739" viewBox="0 0 98.282 91.739"><defs><style>.a{fill:#d2d9e3;}.b{fill:#005f22;}</style></defs><g transform="translate(-13.9 -14.8)"><path class="a" d="M91.6,27.341H83.284l-.409-.409L67.2,16.027a7.657,7.657,0,0,0-8.315,0l-15.131,10.5a1.252,1.252,0,0,0-.545.818H34.483a6.343,6.343,0,0,0-6.27,6.27v3.817c-.136,0-.136,0-.273.136L17.58,44.789a7.493,7.493,0,0,0-3.68,6.543V98.769a7.766,7.766,0,0,0,7.77,7.77h82.742a7.766,7.766,0,0,0,7.77-7.77V51.332a7.67,7.67,0,0,0-3.544-6.543l-10.5-7.361a.134.134,0,0,1-.136-.136V33.475A6.537,6.537,0,0,0,91.6,27.341Zm-31.216-9a5.294,5.294,0,0,1,5.316,0l12.95,9H47.569ZM31.076,33.611a3.609,3.609,0,0,1,3.544-3.544H91.6a3.609,3.609,0,0,1,3.544,3.544v30.4l-15.676,13.9-12.4-10.5a6.175,6.175,0,0,0-7.906,0l-12.4,10.5-15.676-13.9ZM16.763,51.332a4.7,4.7,0,0,1,2.454-4.226L28.349,40.7V61.692L16.763,51.332Zm0,47.3V55.013L44.571,79.685,18.126,102.177A5.45,5.45,0,0,1,16.763,98.633Zm87.65,5.044H21.806a3,3,0,0,1-1.091-.136L60.928,69.462a3.317,3.317,0,0,1,4.362,0L105.5,103.54A2.657,2.657,0,0,1,104.412,103.676Zm5.044-5.044a4.841,4.841,0,0,1-1.363,3.408L81.648,79.685l27.808-24.673Zm-2.317-51.527a4.853,4.853,0,0,1,2.317,4.226h0L97.869,61.556V40.7Z" transform="translate(0)"/><path class="b" d="M37.363,37.726H72.8A1.363,1.363,0,0,0,72.8,35H37.363a1.363,1.363,0,1,0,0,2.726Z" transform="translate(8.025 7.335)"/><path class="b" d="M74.168,45.363A1.288,1.288,0,0,0,72.8,44H37.363a1.363,1.363,0,1,0,0,2.726H72.8A1.288,1.288,0,0,0,74.168,45.363Z" transform="translate(8.025 10.604)"/></g></svg>